<svg class="animated" id="freepik_stories-3d-glasses" xmlns="http://www.w3.org/2000/svg" viewBox="0 0 750 500" version="1.1" xmlns:xlink="http://www.w3.org/1999/xlink" xmlns:svgjs="http://svgjs.com/svgjs"><style>svg#freepik_stories-3d-glasses:not(.animated) .animable {opacity: 0;}svg#freepik_stories-3d-glasses.animated #freepik--Sofa--inject-18 {animation: 3s Infinite  linear floating;animation-delay: 0s;}            @keyframes floating {                0% {                    opacity: 1;                    transform: translateY(0px);                }                50% {                    transform: translateY(-10px);                }                100% {                    opacity: 1;                    transform: translateY(0px);                }            }        </style><g id="freepik--background-complete--inject-18" class="animable" style="transform-origin: 372.686px 245.792px;"><path d="M691.43,192.49a1.24,1.24,0,0,1-.07.33c-.07.25-.15.57-.26,1l-1.06,3.7c-.48,1.6-1,3.56-1.65,5.85s-1.36,4.89-2,7.79-1.52,6.06-2.27,9.49-1.52,7.1-2.3,11c-1.48,7.75-2.88,16.32-4,25.35s-1.78,17.69-2.21,25.57c-.17,3.94-.36,7.69-.4,11.2s-.1,6.77-.09,9.76.08,5.68.12,8.05.11,4.41.19,6.08.11,2.92.14,3.84c0,.41,0,.74,0,1a1.08,1.08,0,0,1,0,.34,1.23,1.23,0,0,1,0-.33c0-.26,0-.59-.08-1-.06-.92-.14-2.2-.25-3.84s-.23-3.71-.29-6.08-.21-5.07-.21-8.06-.06-6.26,0-9.77.19-7.27.35-11.22c.4-7.89,1.08-16.55,2.17-25.61s2.55-17.62,4.05-25.38c.81-3.87,1.54-7.55,2.37-11s1.58-6.6,2.33-9.49,1.5-5.48,2.14-7.77,1.24-4.24,1.75-5.83l1.17-3.67.31-.94A1.67,1.67,0,0,1,691.43,192.49Z" style="fill: rgb(224, 224, 224); transform-origin: 683.072px 257.665px;" id="elrn1zex31fmp" class="animable"></path><path d="M658.66,466.27S639.9,369,639.85,349c-.06-27.68,21.13-38.7,21.13-38.7l-8.23-23.47H698l-7.15,23.31s23.85,12.64,20.52,41.35c-6.22,53.67-16.12,114.74-16.12,114.74Z" style="fill: rgb(245, 245, 245); transform-origin: 675.769px 376.55px;" id="elybzv0n5g8h" class="animable"></path><path d="M703.42,227.28a9.9,9.9,0,0,1-1.3,1.18c-.86.72-2.08,1.79-3.56,3.16a90.48,90.48,0,0,0-19,24.8c-.93,1.78-1.65,3.24-2.12,4.26a9,9,0,0,1-.81,1.56,11.69,11.69,0,0,1,.6-1.65c.4-1,1.07-2.54,2-4.36a81,81,0,0,1,19.09-24.92c1.52-1.33,2.79-2.36,3.7-3A9.34,9.34,0,0,1,703.42,227.28Z" style="fill: rgb(224, 224, 224); transform-origin: 690.025px 244.76px;" id="elnh1b4pu3dzi" class="animable"></path><path d="M669.73,204.62a9.73,9.73,0,0,1,.56,1.58c.32,1,.76,2.53,1.28,4.38,1,3.72,2.34,8.89,3.57,14.65s2.12,11,2.69,14.83c.28,1.91.48,3.46.6,4.53a9.4,9.4,0,0,1,.13,1.67,9.55,9.55,0,0,1-.36-1.64c-.2-1.17-.47-2.68-.79-4.49-.66-3.79-1.63-9-2.85-14.78s-2.46-10.92-3.39-14.66c-.45-1.79-.82-3.28-1.1-4.43A8.7,8.7,0,0,1,669.73,204.62Z" style="fill: rgb(224, 224, 224); transform-origin: 674.145px 225.44px;" id="ellgpf1lp6p8" class="animable"></path><path d="M656.57,248.87a4.21,4.21,0,0,1,1,.67c.6.47,1.44,1.17,2.45,2.06a87.66,87.66,0,0,1,7.45,7.49,89,89,0,0,1,6.49,8.34c.76,1.12,1.35,2,1.73,2.7a4.16,4.16,0,0,1,.55,1c-.07.05-1-1.33-2.62-3.49s-3.88-5.11-6.59-8.2-5.34-5.71-7.29-7.57A42.92,42.92,0,0,1,656.57,248.87Z" style="fill: rgb(224, 224, 224); transform-origin: 666.405px 260.001px;" id="elimlue22880f" class="animable"></path><path d="M59.56,371.68c-4.93-2.55-10.74-2.88-16.22-2-2.94.49-6,1.37-8,3.58s-2.38,6.1-.08,8a7.7,7.7,0,0,0,5.06,1.28c4.28-.05,9-.81,12.47,1.77,1.95,1.48,3.25,3.92,5.59,4.65a5.52,5.52,0,0,0,6.08-2.71,9.48,9.48,0,0,0,.69-7A10.64,10.64,0,0,0,59.56,371.68Z" style="fill: rgb(235, 235, 235); transform-origin: 49.6034px 379.171px;" id="elrkd5c5tfpxm" class="animable"></path><path d="M70.87,349.86c-3,4.31-8.89,2.88-11.6.25S55.4,343.67,54.35,340c-2.39-8.3-4.8-17-3-25.48a14.15,14.15,0,0,1,3.25-6.92,7.4,7.4,0,0,1,7-2.34c3,.78,4.79,3.68,6.12,6.44a60.59,60.59,0,0,1,6,26.06c0,4.2-.48,8.6-2.84,12.07" style="fill: rgb(235, 235, 235); transform-origin: 62.2214px 328.86px;" id="el98z4irq2cyg" class="animable"></path><path d="M79.15,356c-3.27-3.89-3.9-9.56-2.44-14.43s4.75-9,8.55-12.4a46.18,46.18,0,0,1,15.3-9,16.51,16.51,0,0,1,6.88-1.17,7.24,7.24,0,0,1,5.78,3.5c1.61,3.07.07,6.8-1.6,9.84a117.6,117.6,0,0,1-10.05,15.3c-3,3.89-6.47,7.72-11.06,9.47s-9.36,1.55-11.8-1.63" style="fill: rgb(235, 235, 235); transform-origin: 94.9335px 338.596px;" id="elqs8935xaw4c" class="animable"></path><path d="M71.07,414.86a8.71,8.71,0,0,1-.27-2c-.14-1.42-.32-3.21-.52-5.34a79,79,0,0,0-1.2-7.84,62,62,0,0,0-2.85-9.25,34.28,34.28,0,0,0-4.73-8.37,17.68,17.68,0,0,0-6-5,16.94,16.94,0,0,0-5-1.56,10.2,10.2,0,0,1-2-.28,8.42,8.42,0,0,1,2,0,15,15,0,0,1,5.25,1.36,17.69,17.69,0,0,1,6.3,5,33.43,33.43,0,0,1,4.9,8.54,56.27,56.27,0,0,1,2.82,9.4,65.61,65.61,0,0,1,1,7.94c.17,2.27.23,4.11.26,5.38A8.61,8.61,0,0,1,71.07,414.86Z" style="fill: rgb(224, 224, 224); transform-origin: 59.8056px 395.01px;" id="eldahvramiz9" class="animable"></path><path d="M70.7,410.75a4,4,0,0,1,0-.91c0-.68,0-1.54,0-2.6,0-2.25,0-5.51-.12-9.54-.2-8.06-.89-16.74-2.23-29-1.27-11.5-3-24.88-4.77-33.58-.39-2-.78-3.76-1.14-5.32s-.65-2.91-.94-4-.44-1.86-.6-2.53a3.68,3.68,0,0,1-.16-.89,4.26,4.26,0,0,1,.31.85l.76,2.49c.33,1.08.68,2.42,1.07,4s.83,3.33,1.26,5.31a296.27,296.27,0,0,1,5,31.16c1.34,12.25,2,23.41,2,31.49,0,4,0,7.31-.14,9.56-.06,1.06-.12,1.92-.16,2.6A3.42,3.42,0,0,1,70.7,410.75Z" style="fill: rgb(224, 224, 224); transform-origin: 65.94px 366.565px;" id="elwtbul8jo1v" class="animable"></path><path d="M70.65,389.23a16,16,0,0,1,0-2.71c.1-1.75.34-4.27.83-7.36a97.72,97.72,0,0,1,2.39-10.71,88.48,88.48,0,0,1,4.48-12.68,67.43,67.43,0,0,1,13.16-20.48,32.78,32.78,0,0,1,3.09-2.88c.48-.4.9-.8,1.32-1.12l1.21-.83A16.23,16.23,0,0,1,99.43,329c.13.18-3.24,2.16-7.49,6.68a71.44,71.44,0,0,0-12.83,20.41,99.91,99.91,0,0,0-4.5,12.57,107.29,107.29,0,0,0-2.55,10.6c-.56,3.06-.88,5.56-1.08,7.28A18.63,18.63,0,0,1,70.65,389.23Z" style="fill: rgb(224, 224, 224); transform-origin: 85.0131px 359.115px;" id="elw4biw37njbo" class="animable"></path><polygon points="91.45 427.19 89.29 456.73 51.34 456.73 49.18 427.19 91.45 427.19" style="fill: rgb(224, 224, 224); transform-origin: 70.315px 441.96px;" id="elvzwqyrfje79" class="animable"></polygon><rect x="44.66" y="415.55" width="50.46" height="11.64" style="fill: rgb(224, 224, 224); transform-origin: 69.89px 421.37px;" id="elll6x61e6b6h" class="animable"></rect><polygon points="95.11 455.6 95.11 458.83 92.74 458.83 45.49 458.83 45.49 455.6 95.11 455.6" style="fill: rgb(235, 235, 235); transform-origin: 70.3px 457.215px;" id="el5iagx4gvh5" class="animable"></polygon><polygon points="90.42 464.51 92.74 458.83 47.3 458.83 50.01 464.51 90.42 464.51" style="fill: rgb(224, 224, 224); transform-origin: 70.02px 461.67px;" id="eltjojhyan3v" class="animable"></polygon><path d="M49.89,436.85a1.53,1.53,0,0,0,.18.27l.56.75,2.21,2.83.1.12.1-.13,5.43-7.51h-.31l5.34,7.57.17.24.19-.22,6.34-7.55h-.36c.11.13.22.28.34.44l5.67,7.1L76,441l.18-.25,5.35-7.57-.31,0,6.59,7.51.11.13.09-.15,2.07-3.47.52-.92a1.48,1.48,0,0,0,.17-.33,1.36,1.36,0,0,0-.22.29l-.59.89-2.17,3.41.21,0-6.48-7.6-.17-.19-.14.2-5.4,7.54h.36l-5.66-7.12-.35-.44L70,432.7l-.18.22-6.33,7.56h.36L58.47,433l-.16-.22-.15.22-5.32,7.59H53l-2.3-2.76-.61-.71C50,436.92,49.9,436.84,49.89,436.85Z" style="fill: rgb(245, 245, 245); transform-origin: 70.33px 436.85px;" id="elra0cvfh8slr" class="animable"></path><path d="M48.66,427c0,.13,9.51.23,21.23.23s21.24-.1,21.24-.23-9.51-.24-21.24-.24S48.66,426.87,48.66,427Z" style="fill: rgb(245, 245, 245); transform-origin: 69.895px 426.995px;" id="elflphynnb3k" class="animable"></path><path d="M46.74,459.15c0,.13,10.33.23,23.08.23s23.08-.1,23.08-.23-10.33-.24-23.08-.24S46.74,459,46.74,459.15Z" style="fill: rgb(245, 245, 245); transform-origin: 69.82px 459.145px;" id="eltabz1pd8wrd" class="animable"></path><path d="M636.58,284.28c-3.11-12.31-10.6-24.16-22.17-29.4-6.72-3-14.61-3.82-20.24-8.59-10.6-9-7.36-26-12.55-38.87-7.33-18.21-29.63-24.63-49.14-26.8s-41.23-3.3-55-17.35c-10.42-10.68-13.61-26.45-22.11-38.71a53.19,53.19,0,0,0-46.65-22.28c-8.75.63-17.29,3.48-26.07,3.51-25.23.1-47.84-22.71-72.58-17.72-15.59,3.15-27.19,17.14-32.1,32.27s-4.34,31.41-3.72,47.3l-90.57,28c-12.3,3.81-26,8.77-31.34,20.46-2.51,5.46-2.8,11.71-5.07,17.28-3.48,8.53-11.14,14.53-18.69,19.81s-15.55,10.52-20.33,18.39-5.2,19.3,1.75,25.34l6,46.78,347.09,19.82c43.78,2.5,87.68,5,131.47,2.43,12.55-.73,26.37-2.5,34.72-11.89,7.5-8.43,8.46-20.64,9-31.91C639,309.51,639.69,296.6,636.58,284.28Z" style="fill: rgb(245, 245, 245); transform-origin: 371.802px 227.194px;" id="elgx0ss3jfffp" class="animable"></path><g id="eld31hxci6xel"><rect x="625.59" y="42.99" width="9.5" height="47.27" style="fill: rgb(224, 224, 224); transform-origin: 630.34px 66.625px; transform: rotate(-0.31deg);" class="animable"></rect></g><g id="el95lv9wee5"><rect x="543.24" y="43.15" width="24.6" height="26.09" style="fill: rgb(235, 235, 235); transform-origin: 555.54px 56.195px; transform: rotate(-0.31deg);" class="animable"></rect></g><g id="elhz5kfx7kdlq"><rect x="567.72" y="43.02" width="24.6" height="26.09" style="fill: rgb(245, 245, 245); transform-origin: 580.02px 56.065px; transform: rotate(-0.31deg);" class="animable"></rect></g><path d="M543.21,50.42c16.34.14,32.73,0,49.08-.22a.27.27,0,0,0,0-.53c-16.34-.09-32.73,0-49.08.3a.23.23,0,0,0,0,.45Z" style="fill: rgb(224, 224, 224); transform-origin: 567.768px 50.0564px;" id="elk83yu5pxn3s" class="animable"></path><g id="elhezkzuvzy87"><rect x="527.89" y="68.86" width="44.69" height="21.26" style="fill: rgb(235, 235, 235); transform-origin: 550.235px 79.49px; transform: rotate(-0.31deg);" class="animable"></rect></g><g id="elmhuro6t95co"><rect x="572.37" y="68.62" width="44.69" height="21.26" style="fill: rgb(245, 245, 245); transform-origin: 594.715px 79.25px; transform: rotate(-0.31deg);" class="animable"></rect></g><path d="M527.86,74.9c29.69.33,59.49,0,89.17-.45a.26.26,0,0,0,0-.52c-29.69-.15-59.48-.14-89.17.52a.23.23,0,0,0,0,.45Z" style="fill: rgb(224, 224, 224); transform-origin: 572.484px 74.4425px;" id="eljc1ipkatwqo" class="animable"></path><rect x="511.15" y="90.25" width="173.15" height="7.62" style="fill: rgb(224, 224, 224); transform-origin: 597.725px 94.06px;" id="ellt43xmrty0j" class="animable"></rect><rect x="539.5" y="93.91" width="7.03" height="25.99" style="fill: rgb(224, 224, 224); transform-origin: 543.015px 106.905px;" id="eliiiu6u3oxc" class="animable"></rect><rect x="644.43" y="93.91" width="7.03" height="25.99" style="fill: rgb(224, 224, 224); transform-origin: 647.945px 106.905px;" id="eltc4hbn8o7a" class="animable"></rect><g id="elm24ryvhad8c"><rect x="634.9" y="25.36" width="9.5" height="65.01" style="fill: rgb(235, 235, 235); transform-origin: 639.65px 57.865px; transform: rotate(-0.572939deg);" class="animable"></rect></g><g id="el1m04n2vrrgu"><rect x="644.45" y="37.47" width="14.76" height="52.68" style="fill: rgb(245, 245, 245); transform-origin: 651.83px 63.81px; transform: rotate(-0.31deg);" class="animable"></rect></g><path d="M659,47.58a51.41,51.41,0,0,1-7.38.26,51.41,51.41,0,0,1-7.38-.26,109.05,109.05,0,0,1,14.76,0Z" style="fill: rgb(224, 224, 224); transform-origin: 651.62px 47.6023px;" id="elzsue80f142f" class="animable"></path><path d="M659,45.37a53.21,53.21,0,0,1-7.38.26,53.21,53.21,0,0,1-7.38-.26,109.05,109.05,0,0,1,14.76,0Z" style="fill: rgb(224, 224, 224); transform-origin: 651.62px 45.3906px;" id="elupuh31epmql" class="animable"></path><path d="M659,82.19a104.87,104.87,0,0,1-14.76,0,104.87,104.87,0,0,1,14.76,0Z" style="fill: rgb(224, 224, 224); transform-origin: 651.62px 82.19px;" id="elcbi0kfcxnpa" class="animable"></path><path d="M659,80a109.05,109.05,0,0,1-14.76,0A104.87,104.87,0,0,1,659,80Z" style="fill: rgb(224, 224, 224); transform-origin: 651.62px 79.995px;" id="elu6ukcktnon" class="animable"></path><path d="M651.83,75.15c-.14,0-.26-5.32-.26-11.87s.12-11.87.26-11.87.25,5.31.25,11.87S652,75.15,651.83,75.15Z" style="fill: rgb(224, 224, 224); transform-origin: 651.825px 63.28px;" id="elquqiyfmxtfr" class="animable"></path><rect x="659.13" y="50.37" width="16.07" height="39.76" style="fill: rgb(235, 235, 235); transform-origin: 667.165px 70.25px;" id="elxm02ee5b26b" class="animable"></rect><path d="M642.07,36.43a2.73,2.73,0,1,1-2.73-2.73A2.73,2.73,0,0,1,642.07,36.43Z" style="fill: rgb(224, 224, 224); transform-origin: 639.34px 36.43px;" id="el20t6i54y5xx" class="animable"></path><rect x="638.49" y="43.94" width="1.69" height="38.67" style="fill: rgb(224, 224, 224); transform-origin: 639.335px 63.275px;" id="eldzo9jb0slfb" class="animable"></rect><rect x="48.86" y="38.13" width="109.69" height="141.68" style="fill: rgb(224, 224, 224); transform-origin: 103.705px 108.97px;" id="el29i38cwncku" class="animable"></rect><path d="M158.55,38.13a2,2,0,0,1-.3.38l-.94,1.06-3.7,4.06-.05,0h-.06c-9.54.1-28.28.16-49.79.16s-40.26-.06-49.79-.16h-.07l-.05,0-3.7-4.06-.94-1.06a2,2,0,0,1-.3-.38,2.28,2.28,0,0,1,.36.32l1,1,3.81,4-.11-.05c9.53-.1,28.27-.16,49.79-.16s40.25.06,49.79.16l-.12.05,3.82-4,1-1A2.28,2.28,0,0,1,158.55,38.13Z" style="fill: rgb(235, 235, 235); transform-origin: 103.705px 40.96px;" id="el7w732s9wvy4" class="animable"></path><path d="M48.86,179.81a2,2,0,0,1,.3-.38l.94-1.07,3.7-4.06.05,0h.07c9.53-.09,28.27-.16,49.78-.16s40.26.07,49.8.16h.06l.05,0,3.7,4.06.94,1.07a2,2,0,0,1,.3.38,2.91,2.91,0,0,1-.36-.33l-1-1-3.82-4,.12.05c-9.54.1-28.28.17-49.8.17s-40.25-.07-49.78-.17l.11-.05-3.81,4-1,1A2.91,2.91,0,0,1,48.86,179.81Z" style="fill: rgb(235, 235, 235); transform-origin: 103.705px 176.975px;" id="elophavux3v9f" class="animable"></path><rect x="53.92" y="43.52" width="99.58" height="130.88" style="fill: rgb(255, 255, 255); transform-origin: 103.71px 108.96px;" id="elix031xr9nh" class="animable"></rect><path d="M69.5,136.13c3-2.82,7.33-3.62,11.42-3.52s8.14,1,12.23.92c6.55-.08,13.06-2.5,19.51-1.38,2.06.35,4.15,1.07,6.19.63,1.79-.38,3.3-1.6,5.05-2.12,4.54-1.36,9.65,2.19,14,.34v29.21H69.5Z" style="fill: rgb(245, 245, 245); transform-origin: 103.7px 145.276px;" id="elclr0qxhn2l4" class="animable"></path><path d="M70.88,137.31c-.18,0-.32-17.31-.32-38.65S70.7,60,70.88,60s.31,17.31.31,38.66S71.05,137.31,70.88,137.31Z" style="fill: rgb(224, 224, 224); transform-origin: 70.875px 98.655px;" id="elfrytcm4of4m" class="animable"></path><path d="M74,137.31c-.17,0-.32-17.31-.32-38.65S73.82,60,74,60s.32,17.31.32,38.66S74.17,137.31,74,137.31Z" style="fill: rgb(224, 224, 224); transform-origin: 74px 98.655px;" id="el4yzi1co7gx3" class="animable"></path><path d="M77.11,137.31c-.18,0-.32-17.31-.32-38.65S76.93,60,77.11,60s.31,17.31.31,38.66S77.28,137.31,77.11,137.31Z" style="fill: rgb(224, 224, 224); transform-origin: 77.105px 98.655px;" id="el0s96kuxyo3v" class="animable"></path><path d="M80.22,137.31c-.17,0-.32-17.31-.32-38.65S80.05,60,80.22,60s.32,17.31.32,38.66S80.4,137.31,80.22,137.31Z" style="fill: rgb(224, 224, 224); transform-origin: 80.22px 98.655px;" id="eltbq3o9ox4ed" class="animable"></path><path d="M83.34,137.31c-.18,0-.32-17.31-.32-38.65S83.16,60,83.34,60s.31,17.31.31,38.66S83.51,137.31,83.34,137.31Z" style="fill: rgb(224, 224, 224); transform-origin: 83.335px 98.655px;" id="elsavljlws98n" class="animable"></path><path d="M86.45,137.31c-.17,0-.32-17.31-.32-38.65S86.28,60,86.45,60s.32,17.31.32,38.66S86.63,137.31,86.45,137.31Z" style="fill: rgb(224, 224, 224); transform-origin: 86.45px 98.655px;" id="elcyxhs2xs5sj" class="animable"></path><path d="M89.57,137.31c-.18,0-.32-17.31-.32-38.65S89.39,60,89.57,60s.31,17.31.31,38.66S89.74,137.31,89.57,137.31Z" style="fill: rgb(224, 224, 224); transform-origin: 89.565px 98.655px;" id="ellv4d62bli2" class="animable"></path><path d="M92.68,137.31c-.17,0-.32-17.31-.32-38.65S92.51,60,92.68,60,93,77.31,93,98.66,92.86,137.31,92.68,137.31Z" style="fill: rgb(224, 224, 224); transform-origin: 92.68px 98.655px;" id="el05x1el37w72c" class="animable"></path><path d="M95.8,137.31c-.18,0-.32-17.31-.32-38.65S95.62,60,95.8,60s.31,17.31.31,38.66S96,137.31,95.8,137.31Z" style="fill: rgb(224, 224, 224); transform-origin: 95.795px 98.655px;" id="eleiyk81e4a7" class="animable"></path><path d="M98.91,137.31c-.17,0-.32-17.31-.32-38.65S98.74,60,98.91,60s.32,17.31.32,38.66S99.09,137.31,98.91,137.31Z" style="fill: rgb(224, 224, 224); transform-origin: 98.91px 98.655px;" id="eldkkmd6isjd" class="animable"></path><path d="M102,137.31c-.18,0-.32-17.31-.32-38.65S101.85,60,102,60s.31,17.31.31,38.66S102.2,137.31,102,137.31Z" style="fill: rgb(224, 224, 224); transform-origin: 101.995px 98.655px;" id="elqsf19essu4d" class="animable"></path><path d="M105.14,137.31c-.18,0-.32-17.31-.32-38.65S105,60,105.14,60s.32,17.31.32,38.66S105.32,137.31,105.14,137.31Z" style="fill: rgb(224, 224, 224); transform-origin: 105.14px 98.655px;" id="elw74nktg16i" class="animable"></path><path d="M108.26,137.31c-.18,0-.32-17.31-.32-38.65s.14-38.66.32-38.66.31,17.31.31,38.66S108.43,137.31,108.26,137.31Z" style="fill: rgb(224, 224, 224); transform-origin: 108.255px 98.655px;" id="ellm8tqhw06e" class="animable"></path><path d="M111.37,137.31c-.18,0-.32-17.31-.32-38.65s.14-38.66.32-38.66.32,17.31.32,38.66S111.55,137.31,111.37,137.31Z" style="fill: rgb(224, 224, 224); transform-origin: 111.37px 98.655px;" id="els0gy9815u9" class="animable"></path><path d="M114.48,137.31c-.17,0-.31-17.31-.31-38.65s.14-38.66.31-38.66.32,17.31.32,38.66S114.66,137.31,114.48,137.31Z" style="fill: rgb(224, 224, 224); transform-origin: 114.485px 98.655px;" id="elyzvv517ozhq" class="animable"></path><path d="M117.6,137.31c-.18,0-.32-17.31-.32-38.65S117.42,60,117.6,60s.32,17.31.32,38.66S117.77,137.31,117.6,137.31Z" style="fill: rgb(224, 224, 224); transform-origin: 117.6px 98.655px;" id="el12almbt0n0b" class="animable"></path><path d="M120.71,137.31c-.17,0-.31-17.31-.31-38.65s.14-38.66.31-38.66.32,17.31.32,38.66S120.89,137.31,120.71,137.31Z" style="fill: rgb(224, 224, 224); transform-origin: 120.715px 98.655px;" id="elzorjkv6x65" class="animable"></path><path d="M123.83,137.31c-.18,0-.32-17.31-.32-38.65s.14-38.66.32-38.66.32,17.31.32,38.66S124,137.31,123.83,137.31Z" style="fill: rgb(224, 224, 224); transform-origin: 123.83px 98.655px;" id="elwn5bd00if9" class="animable"></path><path d="M126.94,137.31c-.17,0-.31-17.31-.31-38.65s.14-38.66.31-38.66.32,17.31.32,38.66S127.12,137.31,126.94,137.31Z" style="fill: rgb(224, 224, 224); transform-origin: 126.945px 98.655px;" id="elid2d7t3wyup" class="animable"></path><path d="M130.06,137.31c-.18,0-.32-17.31-.32-38.65s.14-38.66.32-38.66.32,17.31.32,38.66S130.23,137.31,130.06,137.31Z" style="fill: rgb(224, 224, 224); transform-origin: 130.06px 98.655px;" id="elb9f323kf5h4" class="animable"></path><path d="M133.17,137.31c-.17,0-.31-17.31-.31-38.65S133,60,133.17,60s.32,17.31.32,38.66S133.35,137.31,133.17,137.31Z" style="fill: rgb(224, 224, 224); transform-origin: 133.175px 98.655px;" id="eluis6qbqxcrc" class="animable"></path><path d="M136.29,137.31c-.18,0-.32-17.31-.32-38.65s.14-38.66.32-38.66.32,17.31.32,38.66S136.46,137.31,136.29,137.31Z" style="fill: rgb(224, 224, 224); transform-origin: 136.29px 98.655px;" id="elxa6oi1pza" class="animable"></path><rect x="188.07" y="35.67" width="61.01" height="63.6" style="fill: rgb(224, 224, 224); transform-origin: 218.575px 67.47px;" id="el0lzjz8qy8wp" class="animable"></rect><rect x="183.94" y="35.67" width="61.01" height="63.6" style="fill: rgb(250, 250, 250); transform-origin: 214.445px 67.47px;" id="eltumyoc9qkjs" class="animable"></rect><path d="M245,99.29H183.92V35.65H245Zm-61,0h61V35.69H184Z" style="fill: rgb(224, 224, 224); transform-origin: 214.46px 67.47px;" id="elozx7pvntvea" class="animable"></path><rect x="192.14" y="44.22" width="44.61" height="46.5" style="fill: rgb(255, 255, 255); transform-origin: 214.445px 67.47px;" id="elr2f8gze1wn" class="animable"></rect><path d="M192.14,91a8.19,8.19,0,0,1-1.1,1.28c-.71.75-1.72,1.77-2.84,2.87s-2.15,2.09-2.91,2.79A6.75,6.75,0,0,1,184,99a7.34,7.34,0,0,1,1.09-1.27c.72-.75,1.72-1.77,2.85-2.88s2.15-2.1,2.91-2.79A6.63,6.63,0,0,1,192.14,91Z" style="fill: rgb(224, 224, 224); transform-origin: 188.07px 95px;" id="el87ypa0gq3n8" class="animable"></path><path d="M236.74,90.91A7.24,7.24,0,0,1,238,92c.76.72,1.77,1.72,2.88,2.84S243,97,243.69,97.76a6.75,6.75,0,0,1,1.07,1.29A6.93,6.93,0,0,1,243.49,98c-.75-.72-1.77-1.72-2.88-2.84s-2.1-2.16-2.8-2.92A6.75,6.75,0,0,1,236.74,90.91Z" style="fill: rgb(224, 224, 224); transform-origin: 240.75px 94.98px;" id="el3ws8rjmce4e" class="animable"></path><path d="M236.62,44.34a7.69,7.69,0,0,1,1.1-1.28c.72-.75,1.72-1.77,2.84-2.87s2.15-2.09,2.91-2.79a6.75,6.75,0,0,1,1.29-1.07,7.34,7.34,0,0,1-1.09,1.27c-.71.75-1.72,1.77-2.84,2.88s-2.16,2.1-2.92,2.79A6.75,6.75,0,0,1,236.62,44.34Z" style="fill: rgb(224, 224, 224); transform-origin: 240.69px 40.335px;" id="elic20r11c3sg" class="animable"></path><path d="M192,44.46a7.24,7.24,0,0,1-1.28-1.1c-.76-.72-1.77-1.72-2.88-2.84s-2.09-2.15-2.79-2.91A6.75,6.75,0,0,1,184,36.32a6.93,6.93,0,0,1,1.27,1.09c.76.71,1.77,1.72,2.88,2.84s2.1,2.16,2.8,2.92A6.75,6.75,0,0,1,192,44.46Z" style="fill: rgb(224, 224, 224); transform-origin: 188px 40.39px;" id="el9esgla325vd" class="animable"></path><path d="M236.62,90.72s0-.08,0-.23,0-.37,0-.65c0-.58,0-1.42,0-2.51,0-2.2,0-5.41,0-9.47,0-8.15,0-19.75-.09-33.64l.17.17-44.48,0h0l.2-.2c0,17.07,0,33,0,46.5l-.17-.17,32.21.08,9.05.05,2.39,0h.62a.67.67,0,0,1,.21,0h-.79l-2.37,0-9,0-32.32.09H192v-.17c0-13.47,0-29.43,0-46.5V44h.2l44.48,0h.18v.17c0,13.94-.07,25.58-.09,33.75,0,4,0,7.24-.05,9.43,0,1.08,0,1.91,0,2.48,0,.27,0,.48,0,.63A.67.67,0,0,1,236.62,90.72Z" style="fill: rgb(224, 224, 224); transform-origin: 214.43px 67.37px;" id="eld510d13pnqm" class="animable"></path><rect x="207" y="60.03" width="14.88" height="14.88" style="fill: rgb(235, 235, 235); transform-origin: 214.44px 67.47px;" id="elxrv4g8ha53" class="animable"></rect></g><g id="freepik--Floor--inject-18" class="animable" style="transform-origin: 375px 464.865px;"><path d="M708.36,464.87c0,.14-149.26.26-333.34.26S41.64,465,41.64,464.87s149.23-.27,333.38-.27S708.36,464.72,708.36,464.87Z" style="fill: rgb(38, 50, 56); transform-origin: 375px 464.865px;" id="elsscwy96nrok" class="animable"></path></g><g id="freepik--Sofa--inject-18" class="animable" style="transform-origin: 379.335px 335.885px;"><polygon points="581.56 410.19 593.34 465.46 578.23 465.46 552.93 409.26 581.56 410.19" style="fill: rgb(224, 224, 224); transform-origin: 573.135px 437.36px;" id="elftqt2kihrh" class="animable"></polygon><path d="M581.56,410.19H581l-1.5,0-5.74-.14-20.87-.57.19-.28,21.53,47.67q1.93,4.32,3.83,8.51l-.24-.16h15.11l-.24.3c-3.37-16-6.27-29.82-8.34-39.63-1-4.9-1.82-8.8-2.38-11.51-.27-1.33-.48-2.36-.62-3.09-.07-.34-.12-.6-.16-.81a1.44,1.44,0,0,1,0-.28,1.61,1.61,0,0,1,.07.25l.18.77c.16.72.39,1.73.68,3L585,425.68c2.13,9.84,5.11,23.67,8.58,39.73l.07.3H578.06l-.06-.15-3.84-8.51c-8.2-18.29-15.71-35-21.41-47.72l-.13-.29h.31l21,.78,5.7.24,1.47.07A3.34,3.34,0,0,1,581.56,410.19Z" style="fill: rgb(38, 50, 56); transform-origin: 573.135px 437.375px;" id="elo1crqbwxv89" class="animable"></path><polygon points="163.87 410.19 152.09 465.46 167.19 465.46 192.5 409.26 163.87 410.19" style="fill: rgb(224, 224, 224); transform-origin: 172.295px 437.36px;" id="elplw3ftzrxxl" class="animable"></polygon><path d="M163.87,410.19a3.34,3.34,0,0,1,.49,0l1.47-.07,5.69-.24,21-.78h.32l-.13.29-21.42,47.72q-1.94,4.32-3.83,8.51l-.07.15H151.78l.06-.3c3.47-16.06,6.46-29.89,8.58-39.73,1.07-4.86,1.92-8.74,2.51-11.43.3-1.31.52-2.32.68-3l.19-.77c0-.17.06-.26.07-.25a2.67,2.67,0,0,1-.05.28c0,.21-.09.47-.15.81-.15.73-.36,1.76-.62,3.09-.56,2.71-1.37,6.61-2.39,11.51-2.06,9.81-5,23.61-8.33,39.63l-.24-.3h15.1l-.23.16q1.88-4.19,3.83-8.51l21.53-47.67.18.28-20.87.57-5.73.14-1.51,0Z" style="fill: rgb(38, 50, 56); transform-origin: 172.31px 437.435px;" id="eleqnirfc9wa" class="animable"></path><rect x="166.22" y="354.99" width="447.8" height="71.7" style="fill: rgb(69, 90, 100); transform-origin: 390.12px 390.84px;" id="eldety2j23v5v" class="animable"></rect><path d="M384.09,297.61v-80.8A10.79,10.79,0,0,1,394.88,206H583.53a10.78,10.78,0,0,1,10.78,10.78V329.06l-210.5,6Z" style="fill: rgb(69, 90, 100); transform-origin: 489.06px 270.53px;" id="eltnli471x7e" class="animable"></path><path d="M172.9,297.61v-80.8A10.82,10.82,0,0,1,183.74,206H373.26a10.81,10.81,0,0,1,10.83,10.78l-.28,118.24-210.91-6Z" style="fill: rgb(69, 90, 100); transform-origin: 278.495px 270.51px;" id="elayp7p0p4vnp" class="animable"></path><path d="M641.88,425.92H593.5c-4.52,0-8.18-4.8-8.18-10.72V287.54c0-5.92,3.66-10.72,8.31-10.72H642c4.39,0,8,4.8,8,10.72V415.2C650.06,421.12,646.4,425.92,641.88,425.92Z" style="fill: rgb(69, 90, 100); transform-origin: 617.66px 351.37px;" id="ell2b5g90rqyi" class="animable"></path><path d="M641.88,425.92s.36,0,1-.13a6.74,6.74,0,0,0,2.83-1.22,9.89,9.89,0,0,0,3.07-3.92,12.41,12.41,0,0,0,.93-3.07,20.42,20.42,0,0,0,.2-3.66c0-10.42-.05-25.49-.09-44.11s0-40.8,0-65.43q0-4.62,0-9.34v-4.76a35.79,35.79,0,0,0-.15-4.76,12.48,12.48,0,0,0-1.56-4.47,8.5,8.5,0,0,0-3.36-3.29,5.65,5.65,0,0,0-2.26-.65c-.79-.07-1.65,0-2.47,0H593.54a6.94,6.94,0,0,0-4.61,2,10.57,10.57,0,0,0-2.69,4.33,15.13,15.13,0,0,0-.66,5.1v25.65c0,13.4,0,26.33,0,38.64s0,24,0,35q0,8.2,0,15.85v7.47c0,1.21,0,2.42,0,3.61a14.75,14.75,0,0,0,.32,3.47,10.93,10.93,0,0,0,3.17,5.78,7.22,7.22,0,0,0,2.76,1.58,10.84,10.84,0,0,0,3.12.26l11.85,0,19,0,12,.05,3.12,0,1.06,0-1.06,0-3.12,0-12,0-19,0-11.85,0a10.69,10.69,0,0,1-3.21-.27,7.3,7.3,0,0,1-2.9-1.64,11.3,11.3,0,0,1-3.3-6,15.6,15.6,0,0,1-.34-3.55v-3.61q0-3.66,0-7.47,0-7.63,0-15.85c0-11,0-22.65,0-35s0-25.24,0-38.64q0-10,0-20.44v-5.21a15.74,15.74,0,0,1,.69-5.26,11,11,0,0,1,2.83-4.55,7.44,7.44,0,0,1,4.95-2.09H640c.84,0,1.64,0,2.51,0a6.35,6.35,0,0,1,2.45.71,9,9,0,0,1,3.56,3.48,12.84,12.84,0,0,1,1.62,4.65,37.58,37.58,0,0,1,.16,4.84c0,1.59,0,3.18,0,4.76v9.34c0,24.63,0,46.8-.06,65.43s-.06,33.69-.08,44.11a19.88,19.88,0,0,1-.23,3.69,12.11,12.11,0,0,1-1,3.1,9.89,9.89,0,0,1-3.15,4,6.63,6.63,0,0,1-2.88,1.18A6,6,0,0,1,641.88,425.92Z" style="fill: rgb(38, 50, 56); transform-origin: 617.753px 351.122px;" id="elr9tkz617c7" class="animable"></path><rect x="383.41" y="327.6" width="205.28" height="41.43" rx="8.6" style="fill: rgb(69, 90, 100); transform-origin: 486.05px 348.315px;" id="elqqm3gnsvg6j" class="animable"></rect><path d="M580.09,369s.42,0,1.22-.13a8.58,8.58,0,0,0,6.85-5.8,10.38,10.38,0,0,0,.42-3.69c0-1.34,0-2.77,0-4.28,0-3,0-6.4,0-10.08,0-1.84,0-3.77,0-5.76s.24-4.13-.57-6.09a8.45,8.45,0,0,0-4.36-4.64c-2.05-1-4.48-.71-6.91-.76l-15.45,0L392,327.92a8.3,8.3,0,0,0-5.45,2.05,8.2,8.2,0,0,0-2.76,5.08,24.85,24.85,0,0,0-.09,3v21.08a14.46,14.46,0,0,0,.16,2.89,8.32,8.32,0,0,0,1,2.64,8.16,8.16,0,0,0,4.27,3.54c1.75.7,3.71.47,5.64.51h39.11l76.08.06,51.28.11,14,.06,3.62,0,1.24,0-1.24,0-3.62,0-14,.06-51.28.1-76.08.07h-42a8.9,8.9,0,0,1-7.55-4.34,9.17,9.17,0,0,1-1.1-2.84,15.38,15.38,0,0,1-.17-3V338.06a23.21,23.21,0,0,1,.1-3.1,8.79,8.79,0,0,1,3-5.47,9,9,0,0,1,5.87-2.2l169.21.09,15.45,0,3.6,0a8.48,8.48,0,0,1,3.46.8,8.8,8.8,0,0,1,5.12,8c0,1,0,2.06,0,3.06,0,2,0,3.92,0,5.76,0,3.68,0,7.05,0,10.08,0,1.51,0,2.94,0,4.28a10.56,10.56,0,0,1-.46,3.75,8.66,8.66,0,0,1-3.61,4.58,8.33,8.33,0,0,1-3.41,1.22A6,6,0,0,1,580.09,369Z" style="fill: rgb(38, 50, 56); transform-origin: 485.967px 348.23px;" id="elo4n9age8r1" class="animable"></path><path d="M165.08,426.69H116.7c-4.51,0-8.18-4.8-8.18-10.72V288.32c0-5.92,3.67-10.72,8.32-10.72h48.37c4.39,0,8,4.8,8,10.72V416C173.26,421.89,169.6,426.69,165.08,426.69Z" style="fill: rgb(69, 90, 100); transform-origin: 140.865px 352.145px;" id="el0rnxunz6mtxo" class="animable"></path><path d="M165.08,426.69s.36,0,1-.12a7,7,0,0,0,2.83-1.22,9.8,9.8,0,0,0,3.07-3.92,12.54,12.54,0,0,0,.93-3.07,20.42,20.42,0,0,0,.2-3.66c0-10.43,0-25.5-.08-44.11s0-40.81-.06-65.43q0-4.62,0-9.35v-4.75a36,36,0,0,0-.15-4.77,12.5,12.5,0,0,0-1.56-4.46,8.37,8.37,0,0,0-3.36-3.29,5.83,5.83,0,0,0-2.26-.66c-.79-.06-1.65,0-2.47,0h-5l-41.47,0a6.89,6.89,0,0,0-4.61,1.95,10.57,10.57,0,0,0-2.69,4.33,15,15,0,0,0-.66,5.09v25.65c0,13.41,0,26.33,0,38.65s0,24,0,35c0,5.47,0,10.76,0,15.84v7.47c0,1.22,0,2.42,0,3.62a14.85,14.85,0,0,0,.32,3.47,11,11,0,0,0,3.17,5.78,7.2,7.2,0,0,0,2.76,1.57,10.53,10.53,0,0,0,3.12.27l11.85,0,19,0,12,.05,3.12,0,1.06,0-1.06,0-3.12,0-12,.05-19,0-11.85,0a11,11,0,0,1-3.21-.27A7.55,7.55,0,0,1,112,425a11.34,11.34,0,0,1-3.3-6,15.05,15.05,0,0,1-.33-3.55c0-1.2,0-2.4,0-3.62q0-3.66,0-7.47c0-5.08,0-10.37,0-15.84,0-11,0-22.66,0-35s0-25.24,0-38.65q0-10,0-20.44v-5.21A15.69,15.69,0,0,1,109,284a11,11,0,0,1,2.83-4.55,7.37,7.37,0,0,1,5-2.09h46.48c.84,0,1.64,0,2.51,0a6.19,6.19,0,0,1,2.45.71,8.9,8.9,0,0,1,3.56,3.48,12.84,12.84,0,0,1,1.62,4.65,37.58,37.58,0,0,1,.16,4.84v14.1c0,24.62,0,46.8-.06,65.43s-.06,33.68-.08,44.11a19.88,19.88,0,0,1-.23,3.69,11.85,11.85,0,0,1-1,3.1,9.78,9.78,0,0,1-3.15,3.94,6.68,6.68,0,0,1-2.88,1.19A6.5,6.5,0,0,1,165.08,426.69Z" style="fill: rgb(38, 50, 56); transform-origin: 140.99px 352.026px;" id="el3unjte8wn5l" class="animable"></path><rect x="166.54" y="327.14" width="216.87" height="42.35" rx="8.6" style="fill: rgb(69, 90, 100); transform-origin: 274.975px 348.315px;" id="ela1nnwxds9wk" class="animable"></rect><path d="M374.81,369.49s.44,0,1.29-.14A8.52,8.52,0,0,0,383,363a14.93,14.93,0,0,0,.27-3.92c0-1.41,0-2.91,0-4.5,0-3.19,0-6.73,0-10.61,0-1.94,0-4,0-6.06,0-1.05,0-2.14-.07-3.2a8.2,8.2,0,0,0-1-3.08,8.4,8.4,0,0,0-5.3-4.06,13.86,13.86,0,0,0-3.61-.26h-3.8l-16.25,0-178.06.1a8.28,8.28,0,0,0-8.27,7.74c0,4.26,0,8.55,0,12.78s0,8.43,0,12.6a8.46,8.46,0,0,0,1.89,5.57,8.3,8.3,0,0,0,5,2.91,18.72,18.72,0,0,0,3,.12H221l80.05.07,54,.1,14.67.06,3.82,0,1.3,0-1.3,0-3.82,0-14.67.05-54,.11-80.05.06H176.79a18.24,18.24,0,0,1-3.11-.13,8.9,8.9,0,0,1-7.45-9.09q0-6.25,0-12.6c0-4.25,0-8.48,0-12.82a8.94,8.94,0,0,1,8.9-8.34l178.06.1,16.25,0h3.8a14.35,14.35,0,0,1,3.7.29,8.82,8.82,0,0,1,5.52,4.25,8.62,8.62,0,0,1,1,3.22c.11,1.12.05,2.18.06,3.24,0,2.1,0,4.12,0,6.06q0,5.82,0,10.61c0,1.59,0,3.09,0,4.5a14.85,14.85,0,0,1-.31,4,8.56,8.56,0,0,1-7.1,6.35,7,7,0,0,1-1,.07Z" style="fill: rgb(38, 50, 56); transform-origin: 274.885px 348.099px;" id="el7t3lz5bifv7" class="animable"></path><path d="M384.09,215.9c.18,0,.32,25.85.32,57.73s-.14,57.73-.32,57.73-.31-25.84-.31-57.73S383.92,215.9,384.09,215.9Z" style="fill: rgb(38, 50, 56); transform-origin: 384.095px 273.63px;" id="elj7bzc22r8sh" class="animable"></path><path d="M491.85,252.44s-.19.27-.44.77a4,4,0,0,0-.32,2.27,3.87,3.87,0,0,0,1.73,2.77,3.64,3.64,0,0,0,5.1-4,3.83,3.83,0,0,0-2.29-2.32,3.9,3.9,0,0,0-2.29-.21c-.54.12-.82.29-.85.24a1.61,1.61,0,0,1,.78-.48,3.94,3.94,0,0,1,2.51,0,4.27,4.27,0,0,1,2.7,2.58,3.47,3.47,0,0,1,0,2.29,4.51,4.51,0,0,1-3.68,2.91,3.5,3.5,0,0,1-2.24-.5,4.24,4.24,0,0,1-1.88-3.22,3.88,3.88,0,0,1,.56-2.44C491.53,252.59,491.83,252.42,491.85,252.44Z" style="fill: rgb(38, 50, 56); transform-origin: 494.667px 255.279px;" id="elcj2u4u8vbke" class="animable"></path><path d="M511,237.38c0,.11-1.28.13-3.24.69a15.66,15.66,0,0,0-10.83,10.6c-.6,2-.66,3.23-.77,3.22a2.21,2.21,0,0,1,0-.9,11.69,11.69,0,0,1,.38-2.44,14.89,14.89,0,0,1,11.15-10.91,12.48,12.48,0,0,1,2.44-.33A2.27,2.27,0,0,1,511,237.38Z" style="fill: rgb(38, 50, 56); transform-origin: 503.557px 244.593px;" id="elarjrm41p83p" class="animable"></path><path d="M466.71,258.69a3.07,3.07,0,0,1,.6-.84,13.87,13.87,0,0,1,2.06-1.94,16.24,16.24,0,0,1,17.69-1.44A13.67,13.67,0,0,1,489.4,256c.51.44.76.71.73.74s-1.17-.89-3.28-1.91a16.79,16.79,0,0,0-17.22,1.41C467.72,257.62,466.8,258.77,466.71,258.69Z" style="fill: rgb(38, 50, 56); transform-origin: 478.421px 255.6px;" id="el5bpa1ycgv2a" class="animable"></path><path d="M496.48,269.16c-.07,0-.57-.49-1.26-1.46a9.7,9.7,0,0,1-1.87-4.32,5.26,5.26,0,0,1,1.51-4.45c1-.85,1.82-.83,1.81-.77s-.73.25-1.49,1.09A5.23,5.23,0,0,0,494,263.3a11.58,11.58,0,0,0,1.62,4.16A6.61,6.61,0,0,1,496.48,269.16Z" style="fill: rgb(38, 50, 56); transform-origin: 494.986px 263.648px;" id="elix59mz9bjlp" class="animable"></path><path d="M277.34,252.44c.05,0-.18.27-.43.77a4,4,0,0,0-.32,2.27,3.87,3.87,0,0,0,1.73,2.77,3.64,3.64,0,0,0,5.1-4,3.86,3.86,0,0,0-2.29-2.32,3.9,3.9,0,0,0-2.29-.21c-.54.12-.82.29-.85.24s.22-.27.78-.48a3.94,3.94,0,0,1,2.51,0,4.27,4.27,0,0,1,2.7,2.58,3.47,3.47,0,0,1,0,2.29,4.54,4.54,0,0,1-3.69,2.91,3.47,3.47,0,0,1-2.23-.5,4.24,4.24,0,0,1-1.88-3.22,3.88,3.88,0,0,1,.56-2.44C277,252.59,277.33,252.42,277.34,252.44Z" style="fill: rgb(38, 50, 56); transform-origin: 280.167px 255.279px;" id="elh5l3ii0t11c" class="animable"></path><path d="M296.46,237.38c0,.11-1.28.13-3.23.69a15.61,15.61,0,0,0-10.83,10.6c-.6,2-.66,3.23-.77,3.22a2.21,2.21,0,0,1,0-.9,12.25,12.25,0,0,1,.37-2.44,14.93,14.93,0,0,1,11.15-10.91,12.56,12.56,0,0,1,2.45-.33A2.24,2.24,0,0,1,296.46,237.38Z" style="fill: rgb(38, 50, 56); transform-origin: 289.022px 244.593px;" id="el13zbfolcrgh" class="animable"></path><path d="M252.21,258.69a3.07,3.07,0,0,1,.6-.84,13.87,13.87,0,0,1,2.06-1.94,16.24,16.24,0,0,1,17.69-1.44A14.09,14.09,0,0,1,274.9,256c.51.44.75.71.73.74s-1.18-.89-3.28-1.91a16.79,16.79,0,0,0-17.22,1.41C253.22,257.62,252.29,258.77,252.21,258.69Z" style="fill: rgb(38, 50, 56); transform-origin: 263.921px 255.6px;" id="el2uql9bp3ea1" class="animable"></path><path d="M282,269.16c-.07,0-.57-.49-1.27-1.46a9.93,9.93,0,0,1-1.87-4.32,5.29,5.29,0,0,1,1.52-4.45c1-.85,1.82-.83,1.81-.77s-.73.25-1.49,1.09a5.19,5.19,0,0,0-1.21,4.05,11.58,11.58,0,0,0,1.62,4.16A6.61,6.61,0,0,1,282,269.16Z" style="fill: rgb(38, 50, 56); transform-origin: 280.502px 263.648px;" id="el6ii88dzwju4" class="animable"></path></g><g id="freepik--character-1--inject-18" class="animable animator-active" style="transform-origin: 390.141px 286.07px;"><path d="M371.89,126.6c-2.19-2.52-4.87-4.93-5.54-8.2-.63-3,.55-6.38-.93-9.07-1.82-3.31-6.65-3.76-8.88-6.82-1.08-1.48-1.4-3.4-2.46-4.89-1.82-2.54-5.34-3.22-8.44-2.91s-6.09,1.42-9.21,1.63c-4.27.28-8.67-1.13-12.77.07-4.53,1.34-7.31,5.33-10.27,9.19l-3.85,4.47a17,17,0,0,1-2.57,2.07c-1.62,1-3.47,1.75-4.86,3.07a7.56,7.56,0,0,0,.45,10.89,8.08,8.08,0,0,0-5.48,7.9,23.29,23.29,0,0,0,1.44,5.49,8,8,0,0,1,.13,5.57c-.76,1.73-3,2.92-4.64,2a8.48,8.48,0,0,0,4.61,5.68,5.13,5.13,0,0,1-3.42,1.51c3.43,8.14,12.83,12.45,21.67,12.52s17.3-3.25,25.51-6.52l23.82-6.11c2.09-.47,3-3,2.94-5.15s-.56-4.37.21-6.37c1.06-2.75,4.25-4.19,5.36-6.92C376,132.59,374.08,129.13,371.89,126.6Z" style="fill: rgb(38, 50, 56); transform-origin: 334.568px 130.706px;" id="eljff0p1jlu" class="animable"></path><path d="M315.53,148.14a98,98,0,0,1-4.15-16.4,34.26,34.26,0,0,1,1.46-16.7c.3-.8,2.88-6.16,3.73-6.07.61.06-1,5.07-.68,5.6,2.9,5.07,3.65,11.14,3.14,17a76.29,76.29,0,0,1-3.5,16.61" style="fill: rgb(38, 50, 56); transform-origin: 315.06px 128.574px;" id="elg3ghksdx7aw" class="animable"></path><path d="M315.12,126.59c-.36-14.15,7.58-26.16,21.74-26.13l1.31.08A25.31,25.31,0,0,1,362,125.3c.24,12.27.36,25.83-.12,32.38-1,13.55-14.68,14.84-14.68,14.84s.33,22.3.33,22.3L315.08,188Z" style="fill: rgb(193, 109, 104); transform-origin: 338.645px 147.64px;" id="elws9bty7ifqs" class="animable"></path><path d="M347.15,172.52a32.89,32.89,0,0,1-17.35-6.29s3.79,11.28,17.4,10.88Z" style="fill: rgb(146, 77, 73); transform-origin: 338.5px 171.675px;" id="elxxmbrcp6ogg" class="animable"></path><path d="M357.31,136.82a1.94,1.94,0,0,1-2,1.84,1.84,1.84,0,0,1-1.89-1.86,2,2,0,0,1,2-1.85A1.87,1.87,0,0,1,357.31,136.82Z" style="fill: rgb(38, 50, 56); transform-origin: 355.365px 136.805px;" id="elo94x11wiioc" class="animable"></path><path d="M358.71,130.76c-.25.23-1.66-.94-3.74-1.06s-3.68.83-3.89.56c-.1-.12.17-.56.87-1a5.37,5.37,0,0,1,3.13-.76,5.15,5.15,0,0,1,3,1.16C358.65,130.18,358.84,130.65,358.71,130.76Z" style="fill: rgb(38, 50, 56); transform-origin: 354.904px 129.639px;" id="el0y60tc07f83" class="animable"></path><path d="M339.53,136.78a1.94,1.94,0,0,1-2,1.84,1.85,1.85,0,0,1-1.89-1.87,2,2,0,0,1,2-1.84A1.87,1.87,0,0,1,339.53,136.78Z" style="fill: rgb(38, 50, 56); transform-origin: 337.585px 136.765px;" id="el1cz0wuz25zf" class="animable"></path><path d="M338.25,130.36c-.26.24-1.66-.94-3.75-1.06s-3.67.83-3.88.56.16-.56.86-1a5.24,5.24,0,0,1,3.13-.76,5.12,5.12,0,0,1,3,1.15C338.18,129.78,338.37,130.25,338.25,130.36Z" style="fill: rgb(38, 50, 56); transform-origin: 334.423px 129.239px;" id="el176l4lhmg1o" class="animable"></path><path d="M344.75,146.83a13.6,13.6,0,0,1,3.42-.41c.54,0,1.05-.09,1.16-.45a2.7,2.7,0,0,0-.26-1.6c-.42-1.32-.86-2.7-1.33-4.15-1.83-5.9-3.13-10.74-2.89-10.81s1.92,4.65,3.76,10.55c.43,1.46.86,2.84,1.26,4.17a3.13,3.13,0,0,1,.14,2.11,1.33,1.33,0,0,1-.92.72,3.73,3.73,0,0,1-.91.07A13.36,13.36,0,0,1,344.75,146.83Z" style="fill: rgb(38, 50, 56); transform-origin: 347.44px 138.236px;" id="el6qsdiz1tb7" class="animable"></path><path d="M338.53,147.9c.34,0,.21,2.26,2,4s4.27,1.62,4.27,1.94c0,.15-.57.41-1.59.37a5.56,5.56,0,0,1-3.56-1.49,4.9,4.9,0,0,1-1.57-3.33C338.09,148.42,338.37,147.88,338.53,147.9Z" style="fill: rgb(38, 50, 56); transform-origin: 341.44px 151.057px;" id="elch9vcsrvxnm" class="animable"></path><path d="M338.64,121.9c-.24.55-2.3.16-4.76.3s-4.49.69-4.78.17c-.13-.25.25-.77,1.08-1.27a8,8,0,0,1,3.59-1,8.06,8.06,0,0,1,3.68.66C338.32,121.16,338.75,121.63,338.64,121.9Z" style="fill: rgb(38, 50, 56); transform-origin: 333.866px 121.338px;" id="el2nta62cxckh" class="animable"></path><path d="M358.27,123.78c-.4.45-1.8-.13-3.53-.26s-3.2.13-3.51-.39c-.13-.25.13-.71.79-1.12a5.12,5.12,0,0,1,5.67.52C358.27,123.05,358.45,123.55,358.27,123.78Z" style="fill: rgb(38, 50, 56); transform-origin: 354.767px 122.668px;" id="el3p1y5gg9usc" class="animable"></path><path d="M315.62,136.7c-.22-.11-9.15-3.32-9.41,6s9.11,7.64,9.13,7.38S315.62,136.7,315.62,136.7Z" style="fill: rgb(193, 109, 104); transform-origin: 310.912px 143.22px;" id="elfouic1639t" class="animable"></path><path d="M312.61,146.45s-.17.11-.44.22a1.59,1.59,0,0,1-1.22,0c-1-.39-1.75-2-1.75-3.64a5.64,5.64,0,0,1,.52-2.31,1.87,1.87,0,0,1,1.26-1.2.82.82,0,0,1,.94.47c.12.26.05.44.1.46s.21-.15.14-.53a1,1,0,0,0-.35-.6,1.25,1.25,0,0,0-.89-.26,2.29,2.29,0,0,0-1.73,1.39,5.53,5.53,0,0,0-.63,2.58c0,1.87.91,3.65,2.24,4.08a1.78,1.78,0,0,0,1.49-.21C312.58,146.67,312.64,146.46,312.61,146.45Z" style="fill: rgb(146, 77, 73); transform-origin: 310.588px 143.121px;" id="elqmm8e860kjb" class="animable"></path><path d="M356.24,109.79c1.53-.8-2.89-5.76-6.55-7.51-5.54-2.64-14-4.37-19.21-3-6.24,1.64-11.45,4.62-14.68,10.2A36.64,36.64,0,0,0,311.33,128a11.09,11.09,0,0,0,1.2,5.7c1.25,2.09,3.72,3.43,3.55,6.26a3.93,3.93,0,0,0,.91,2.86c1.67,1.84,3.78.18,4.77-1.5,2.11-3.6,2.43-7.94,2.69-12.11a27.06,27.06,0,0,0-.41-8.85c-.43-1.56-1.13-3-1.46-4.61a5.56,5.56,0,0,1,.75-4.63,6.2,6.2,0,0,1,.77-.75,9.7,9.7,0,0,1,9.65-1.64c5.19,2,14.07,4.9,16.44,3.17,3.41-2.49,4.25-4.14,4.25-4.14Z" style="fill: rgb(38, 50, 56); transform-origin: 333.931px 121.212px;" id="el67gu1qdxsp2" class="animable"></path><path d="M331,98a20.42,20.42,0,0,1,15.68,1.18,10.6,10.6,0,0,1,5.48,6.28c.71,2.76-.53,6.13-3.2,7.15l-.18.11c-4,1.26-6.56.68-10.48-.77-3.3-1.22-6.22-3.33-9.53-4.53a18.85,18.85,0,0,0-11.05-.54A31,31,0,0,1,331,98Z" style="fill: rgb(38, 50, 56); transform-origin: 335.039px 105.188px;" id="el41et9gmrrvb" class="animable"></path><path d="M324.35,126.38l-12.89,6.17s-3.59,2.12-3.35,4.61a11.46,11.46,0,0,1,4.77-.82A3.14,3.14,0,0,1,316,139v.05l8.07,1Z" style="fill: rgb(224, 224, 224); transform-origin: 316.224px 133.215px;" id="elzf62ibueh7" class="animable"></path><path d="M324.34,126.38c-.09.47-.23,13.7-.23,13.7l17.59.23s3-6,4.05-6.1c1.6-.1,4.11,5.66,4.11,5.66l14.86,0V126.77Zm16.2,10.48a1.21,1.21,0,0,1-1.21,1.21H328.64a1.21,1.21,0,0,1-1.21-1.21v-6.6a1.21,1.21,0,0,1,1.21-1.21h10.69a1.21,1.21,0,0,1,1.21,1.21Zm21.9,0a1.21,1.21,0,0,1-1.21,1.21H352a1.22,1.22,0,0,1-1.22-1.21v-6.6a1.22,1.22,0,0,1,1.22-1.21h9.23a1.21,1.21,0,0,1,1.21,1.21Z" style="fill: rgb(224, 224, 224); transform-origin: 344.415px 133.345px;" id="el98y107by07u" class="animable"></path><rect x="327.43" y="129.05" width="13.12" height="9.03" rx="1.28" style="fill: rgb(69, 90, 100); transform-origin: 333.99px 133.565px;" id="elj88swva5de" class="animable"></rect><rect x="350.78" y="129.05" width="11.66" height="9.03" rx="1.28" style="fill: rgb(252, 23, 34); transform-origin: 356.61px 133.565px;" id="elkfhocuocdeb" class="animable"></rect><path d="M324.42,140.21a45.67,45.67,0,0,1-.26-6.83,45.48,45.48,0,0,1,.26-6.82,45.48,45.48,0,0,1,.26,6.82A45.67,45.67,0,0,1,324.42,140.21Z" style="fill: rgb(38, 50, 56); transform-origin: 324.42px 133.385px;" id="elzkk50bnjdx" class="animable"></path><path d="M339.08,130.52a25.56,25.56,0,0,1-3.5,3.79,26.56,26.56,0,0,1-3.87,3.41,25.56,25.56,0,0,1,3.5-3.79A26.56,26.56,0,0,1,339.08,130.52Z" style="fill: rgb(255, 255, 255); transform-origin: 335.395px 134.12px;" id="elwhx5tclri4k" class="animable"></path><path d="M336.63,130a14.94,14.94,0,0,1-2.63,2.89,15.16,15.16,0,0,1-3,2.52,28.8,28.8,0,0,1,5.62-5.41Z" style="fill: rgb(255, 255, 255); transform-origin: 333.815px 132.705px;" id="el0051fco2fuoa6" class="animable"></path><path d="M356.89,132.25a7.93,7.93,0,0,1-1.68,2.27c-1,1.16-2,2-2.07,1.92a7.84,7.84,0,0,1,1.68-2.27A7.92,7.92,0,0,1,356.89,132.25Z" style="fill: rgb(255, 255, 255); transform-origin: 355.015px 134.348px;" id="elimun2vnrmx" class="animable"></path><path d="M360.56,129.93a12.08,12.08,0,0,1-2.38,3.62,12.31,12.31,0,0,1-3.14,3,32.54,32.54,0,0,1,2.74-3.31A36.06,36.06,0,0,1,360.56,129.93Z" style="fill: rgb(255, 255, 255); transform-origin: 357.8px 133.24px;" id="elkqxqu5ige2" class="animable"></path><path d="M408.1,189.09s43.53,4.39,49,2.67,46.93.76,46.93.76l1.47,13.73-101.55,6.33Z" style="fill: rgb(193, 109, 104); transform-origin: 454.725px 200.835px;" id="el1iaizf8kic3" class="animable"></path><path d="M503.47,192.49s5.92.47,7.73.86,31,6.34,32.53,7.24,15.32,5.19,15.32,5.19.13,2.08-1.56,2.34-7.92-1.69-7.92-1.69l6.24,4.67a9,9,0,0,1-5.46.91c-3.37-.39-13.89-6.1-13.89-6.1l-9.86.39s9.08,5.13,9.21,7.24a3,3,0,0,1-3.89,3c-1.82-.65-9.09-4.16-9.09-4.16s-11.68-3.63-13.76-6l-7.52,0Z" style="fill: rgb(193, 109, 104); transform-origin: 530.301px 204.583px;" id="elmz4e2mx0d8" class="animable"></path><path d="M369.26,180.53s3.35-.31,16.3,2.69A171.22,171.22,0,0,0,410.5,187l.81,27.45s-40.27.39-44.87,9.41Z" style="fill: rgb(252, 23, 34); transform-origin: 388.875px 202.19px;" id="ele147wh318nw" class="animable"></path><g id="elvzyhh6b67j"><g style="opacity: 0.3; transform-origin: 387.712px 201.195px;" class="animable"><path d="M377.2,218.05s-.87-18.7,4.2-25.77c4.58-6.39,8.81-7.94,8.81-7.94l8.07,2.1-5.6,10.06-2.5,19.28Z" id="ele9e7802kuju" class="animable" style="transform-origin: 387.712px 201.195px;"></path></g></g><path d="M283.68,180.53v34.61L265,256.92l67.2,36,34.16,7.63s-.3-9.25-2.85-30c-2.08-17,6.52-60.51,6.52-60.51V180.53l-22.85-2.67s-3.66,8.16-15.8,7.74c-15-.51-16.33-9.8-16.33-9.8Z" style="fill: rgb(252, 23, 34); transform-origin: 317.515px 238.175px;" id="eliphzod3ll3m" class="animable"></path><path d="M283.68,180.53s-9.53,1-15.06,6.11-20.54,25.16-20.54,25.16l29.18,22.87L291,209.72Z" style="fill: rgb(252, 23, 34); transform-origin: 269.54px 207.6px;" id="ele230uyrfj8" class="animable"></path><g id="elkc5kwjxcrq"><g style="opacity: 0.3; transform-origin: 302.08px 253.815px;" class="animable"><path d="M268.1,206.37l78.06,88.71-7.54,6.5L258,206.37A40.12,40.12,0,0,1,268.1,206.37Z" id="el7u3u47ki5yq" class="animable" style="transform-origin: 302.08px 253.815px;"></path></g></g><path d="M279,202.79c.14,0,.77,6.88,1.4,15.39s1,15.41.87,15.43-.77-6.88-1.39-15.39S278.82,202.8,279,202.79Z" style="fill: rgb(38, 50, 56); transform-origin: 280.128px 218.2px;" id="eljh2vmgl8zta" class="animable"></path><path d="M348.05,261a13,13,0,0,1-1.67-.61c-1.06-.43-2.61-1-4.54-1.68s-4.27-1.36-6.89-2-5.54-1.22-8.62-1.65-6.06-.62-8.76-.71-5.13,0-7.17.1-3.69.27-4.83.4a11.49,11.49,0,0,1-1.77.14,13,13,0,0,1,1.75-.34c1.13-.2,2.78-.4,4.83-.56a71.77,71.77,0,0,1,7.21-.22,75.83,75.83,0,0,1,17.48,2.38c2.63.69,5,1.42,6.89,2.14s3.46,1.34,4.5,1.83A10.88,10.88,0,0,1,348.05,261Z" style="fill: rgb(38, 50, 56); transform-origin: 325.925px 257.428px;" id="elpmq6zi1fctc" class="animable"></path><path d="M373.32,188.37a10.82,10.82,0,0,1-.2,1.74l-.71,4.73c-.6,4.07-1.39,9.55-2.27,15.6S368.41,222,367.71,226c-.34,2-.64,3.59-.87,4.7a13.62,13.62,0,0,1-.4,1.71,9.53,9.53,0,0,1,.2-1.74c.18-1.21.42-2.8.71-4.73.59-4.07,1.39-9.55,2.27-15.6s1.72-11.6,2.42-15.58c.35-2,.65-3.6.88-4.7A11.25,11.25,0,0,1,373.32,188.37Z" style="fill: rgb(38, 50, 56); transform-origin: 369.88px 210.39px;" id="el6vfrwb47jdt" class="animable"></path><g id="eley9drxnw1n"><g style="opacity: 0.3; transform-origin: 262.785px 376.575px;" class="animable"><polygon points="243.56 330.95 258.78 335.94 247.5 427 264.87 427 282.01 326.15 243.56 330.95" id="el9yao5jxvdzl" class="animable" style="transform-origin: 262.785px 376.575px;"></polygon></g></g><path d="M266.37,200s6.34.67,4,4.33-7.09,2.79-7.09,2.79l-8.36-2.45-2.55-2.85V200a45.64,45.64,0,0,0,7.89.56C263.15,200.29,266.37,200,266.37,200Z" style="fill: rgb(193, 109, 104); transform-origin: 261.629px 203.605px;" id="elg74s2186uzd" class="animable"></path><path d="M289.37,432,277.8,477.4l-56.53-14.1c1.68-5.32,33.63-8.86,33.63-8.86l6.22-29.38Z" style="fill: rgb(69, 90, 100); transform-origin: 255.32px 451.23px;" id="elwadouhv1obh" class="animable"></path><path d="M273,456.35a2.37,2.37,0,0,1,.94,3,2.29,2.29,0,0,1-3,1,2.51,2.51,0,0,1-1-3.22,2.38,2.38,0,0,1,3.23-.65" style="fill: rgb(255, 255, 255); transform-origin: 271.927px 458.339px;" id="el9gvgfjv3mq" class="animable"></path><path d="M277.78,477.5l1.26-4.85-54.87-11.49s-2.79.48-2.94,2.33Z" style="fill: rgb(38, 50, 56); transform-origin: 250.135px 469.33px;" id="elto7j4ge31cd" class="animable"></path><path d="M254.05,453.92c-.06.28,1.29.75,2.43,2s1.57,2.56,1.85,2.52.27-1.75-1.13-3.21S254.06,453.65,254.05,453.92Z" style="fill: rgb(255, 255, 255); transform-origin: 256.261px 456.123px;" id="el9ghoo55wiaj" class="animable"></path><path d="M247.51,454.89c-.13.26,1,1,1.6,2.43s.61,2.7.88,2.76.85-1.47,0-3.19S247.58,454.63,247.51,454.89Z" style="fill: rgb(255, 255, 255); transform-origin: 248.967px 457.455px;" id="elw3cjanzsc2m" class="animable"></path><path d="M242.38,461.15c.23.12,1-1.16.63-2.85s-1.47-2.61-1.65-2.41.42,1.21.68,2.6S242.11,461.05,242.38,461.15Z" style="fill: rgb(255, 255, 255); transform-origin: 242.218px 458.51px;" id="eldykx6ustzac" class="animable"></path><path d="M256.21,447.39c.06.28,1.42.21,3,.71s2.63,1.29,2.83,1.09-.72-1.48-2.53-2S256.13,447.13,256.21,447.39Z" style="fill: rgb(255, 255, 255); transform-origin: 259.137px 448.087px;" id="el13d7ueognns" class="animable"></path><path d="M288.67,293s-16.91-2-19.61,15.66C266.41,326,255.3,443.87,255.3,443.87l31.76,6.4s21.51-54.11,24.38-72S315,336.62,315,336.62s21.44,2.75,41.1-4.62c2.55-1,8.28-31.87,8.28-31.87l-25.81-5.77L268.4,255.2Z" style="fill: rgb(38, 50, 56); transform-origin: 309.84px 352.735px;" id="el4tq1e3idbwn" class="animable"></path><path d="M308.33,305.23,336,335.94l38.39-34.18c-3.49-3.47-29.91,6.85-29.91,6.85l-16.89-20.4Z" style="fill: rgb(69, 90, 100); transform-origin: 341.36px 312.075px;" id="elinfbkfvdynn" class="animable"></path><path d="M331.09,317.52a2.1,2.1,0,0,0,.51,2.75,2,2,0,0,0,2.74-.48,2.22,2.22,0,0,0-.56-2.91,2.1,2.1,0,0,0-2.79.81" style="fill: rgb(255, 255, 255); transform-origin: 332.721px 318.628px;" id="el91ga3pj5iys" class="animable"></path><path d="M336,336l-3-3.28,38.17-31.46s2.38-.76,3.25.62Z" style="fill: rgb(38, 50, 56); transform-origin: 353.71px 318.526px;" id="elmbgf3sbqw6q" class="animable"></path><path d="M336,336a1.09,1.09,0,0,1,.19-.2l.58-.54,2.22-2,8.15-7.34,27.12-24.21,0,.33a2.32,2.32,0,0,0-2.47-.62l-.48.11.09,0c-17.14,14.13-31.86,26.17-38.27,31.34v-.15l2.14,2.45.56.65.2.25-.2-.19-.58-.61c-.55-.58-1.31-1.38-2.27-2.41l-.08-.08.09-.07c6.29-5.31,20.93-17.45,38.06-31.58l0,0,0,0,.54-.13a4.46,4.46,0,0,1,1.63,0,2.07,2.07,0,0,1,1.38.88l.11.19-.16.15-27.41,24.17L339,333.45l-2.22,1.92-.58.49Z" style="fill: rgb(69, 90, 100); transform-origin: 353.805px 318.497px;" id="el5xyxraa17dd" class="animable"></path><path d="M344.89,307.86c.16.2-.7,1.12-1.08,2.54s-.18,2.65-.42,2.73-.92-1.25-.42-3S344.78,307.65,344.89,307.86Z" style="fill: rgb(255, 255, 255); transform-origin: 343.85px 310.479px;" id="eljelvf77svd9" class="animable"></path><path d="M350.4,305.94c.21.15-.32,1.19-.25,2.55s.63,2.36.44,2.52-1.26-.8-1.32-2.49S350.24,305.77,350.4,305.94Z" style="fill: rgb(255, 255, 255); transform-origin: 349.948px 308.475px;" id="elnxl0epq6m1" class="animable"></path><path d="M357,308.73c-.14.19-1.23-.52-1.66-2s.08-2.65.3-2.56.16,1.12.53,2.31S357.15,308.54,357,308.73Z" style="fill: rgb(255, 255, 255); transform-origin: 356.098px 306.463px;" id="el9bedxtgqf0n" class="animable"></path><path d="M340.53,303.64c.07.24-1,.75-2,1.76s-1.52,2.09-1.76,2,0-1.45,1.15-2.62S340.49,303.41,340.53,303.64Z" style="fill: rgb(255, 255, 255); transform-origin: 338.61px 305.481px;" id="el94sm51zzuxp" class="animable"></path><path d="M243.55,331S228.32,291,230.36,264.33s-.81-39.23,1.63-47.23,5.3-11.27,17.13-13.72,16.72,4.08,22,11.42,68.8,80.28,68.8,80.28L314.78,318,291,295.08s-18.44-1.44-20.68,12.28c-2.17,13.3-3.15,23.85-3.15,23.85Z" style="fill: rgb(38, 50, 56); transform-origin: 285.046px 267.033px;" id="el3lcs3pqegr7" class="animable"></path><path d="M243.55,331s.54,0,1.57,0l4.57,0,17.48.13-.12.1c.6-6.17,1.5-13.54,2.8-21.92.16-1,.32-2.11.56-3.19a14.61,14.61,0,0,1,1.22-3.13,13.21,13.21,0,0,1,4.86-5,21.17,21.17,0,0,1,6.87-2.55,31.79,31.79,0,0,1,7.66-.56h.07l.05.05,23.79,22.91h-.31l25.15-23,0,.34C326.47,280,312,263.32,297.05,245.93l-13.73-16-6.67-7.9c-2.19-2.63-4.39-5.22-6.37-7.94a39.25,39.25,0,0,0-6.53-7.44,16.65,16.65,0,0,0-4.15-2.46,16.07,16.07,0,0,0-4.67-1,31.25,31.25,0,0,0-9.38,1.34,21.89,21.89,0,0,0-8.35,3.85c-2.36,2-3.65,4.81-4.59,7.63a24.32,24.32,0,0,0-1.06,4.3,43.27,43.27,0,0,0-.34,4.38c-.14,5.84.16,11.52.15,17s-.1,10.8-.37,15.9-.78,10-.55,14.62a140.86,140.86,0,0,0,3.34,24.93c1.57,7.24,3.28,13.41,4.76,18.41s2.76,8.86,3.64,11.46l1,3,.26.75a1.87,1.87,0,0,1,.08.26s-.14-.34-.39-1L242.08,327c-.91-2.6-2.22-6.44-3.74-11.44s-3.24-11.16-4.84-18.41a139.6,139.6,0,0,1-3.42-25c-.25-4.69.26-9.59.51-14.66s.38-10.39.34-15.88-.31-11.16-.18-17a44.25,44.25,0,0,1,.34-4.43,24.66,24.66,0,0,1,1.07-4.39c1-2.84,2.27-5.79,4.73-7.84a22.1,22.1,0,0,1,8.53-4,31.32,31.32,0,0,1,9.54-1.36,16.42,16.42,0,0,1,4.82,1,17.37,17.37,0,0,1,4.29,2.53,40,40,0,0,1,6.62,7.53c2,2.71,4.17,5.29,6.35,7.92l6.67,7.89q6.77,7.9,13.73,16l42.69,49.33.15.18-.17.16-25.18,22.92-.16.15-.15-.15-23.76-23,.12.06a31,31,0,0,0-7.55.54,20.77,20.77,0,0,0-6.75,2.48,12.78,12.78,0,0,0-4.74,4.81,13.43,13.43,0,0,0-1.2,3.05c-.24,1-.4,2.12-.57,3.16-1.33,8.37-2.25,15.74-2.88,21.9v.11h-.11l-17.54-.26-4.54-.08Z" style="fill: rgb(69, 90, 100); transform-origin: 285.146px 266.909px;" id="elmw3m09p05cc" class="animable"></path><g id="eltfmukwymzjb"><g style="opacity: 0.3; transform-origin: 288.575px 289.465px;" class="animable"><path d="M333.33,332.77c-1.6,2.31-5.31,2.12-7.53.39s-3.37-4.46-4.54-7-2.61-5.23-5.12-6.52c-2.11,2.32-6.09,1.67-8.51-.33s-3.79-5-5.58-7.53c-7.74-11.2-22.4-14.77-33.78-22.23a55.05,55.05,0,0,1-24.45-45.1s2.32,15.14,16.3,29.31S282,291,290.3,294.81L314.78,318l2.78-2.54Z" id="elr5c7qsd1h37" class="animable" style="transform-origin: 288.575px 289.465px;"></path></g></g><path d="M291,295.08a4.1,4.1,0,0,1-.73-.24l-2.06-.79-1.49-.58c-.54-.23-1.11-.51-1.72-.8-1.23-.6-2.66-1.2-4.14-2.08l-2.36-1.31c-.81-.46-1.61-1-2.47-1.56-1.73-1.05-3.44-2.36-5.27-3.7a78.49,78.49,0,0,1-19.52-22c-1.12-2-2.22-3.84-3.05-5.68-.44-.92-.9-1.78-1.26-2.64s-.7-1.7-1-2.5c-.7-1.57-1.13-3.06-1.58-4.35-.21-.65-.42-1.25-.59-1.81s-.28-1.07-.4-1.54c-.22-.89-.4-1.61-.54-2.14a4.46,4.46,0,0,1-.15-.76,4,4,0,0,1,.26.73c.15.53.36,1.23.63,2.11.13.47.28,1,.44,1.53s.41,1.14.63,1.79c.47,1.27.93,2.75,1.64,4.31l1.05,2.46c.37.86.83,1.71,1.27,2.62.85,1.82,2,3.66,3.08,5.62a80.59,80.59,0,0,0,19.4,21.85c1.81,1.34,3.51,2.66,5.22,3.72.84.54,1.63,1.11,2.44,1.57l2.33,1.34c1.46.89,2.87,1.52,4.08,2.14.61.29,1.17.59,1.7.83l1.46.62,2,.88A4,4,0,0,1,291,295.08Z" style="fill: rgb(69, 90, 100); transform-origin: 266.835px 267.84px;" id="eloisrreiklk" class="animable"></path><path d="M243,198.85s2.34-3,4.67-2.22,16.64,10,17.18,12.44-.4,5.12-2.18,4.78-13.33-9.56-13.33-9.56l-1.56-.33s8.85,7.39,8.82,9.92-1.59,4-3.37,3.53-13.9-11.11-13.9-11.11l-.78.69s10,10.2,9.68,12-3.12,2.22-5.45,1.33-9-8.78-9-8.78l-.06,3.53,1.5,3.69,3.89,4.34s1.22,3.56-2.33,3.11-4.38-3.51-5.36-4.37a21.25,21.25,0,0,1-2.65-4.08V210a3,3,0,0,1,3.45-2.44,4.16,4.16,0,0,1,2.44-3.56c2.34-.89,3.45-.22,3.45-.22S238.81,198.51,243,198.85Z" style="fill: rgb(193, 109, 104); transform-origin: 246.886px 211.375px;" id="eld33jggiva1f" class="animable"></path></g><g id="freepik--character-2--inject-18" class="animable" style="transform-origin: 470.115px 282.02px;"><g id="elhbcwabvetol"><g style="opacity: 0.3; transform-origin: 454.335px 378.99px;" class="animable"><polygon points="452.58 427.13 438.06 427.29 431.88 370.83 425.33 356.78 426.7 340.1 392.13 331.4 440.41 330.69 458.11 360.44 487.86 347.78 506.45 353.6 516.54 374.21 505.55 380.81 498.39 371.85 489 362.85 479.97 425.06 452.58 427.13" id="el5hn6wid3zek" class="animable" style="transform-origin: 454.335px 378.99px;"></polygon></g></g><path d="M457.46,151.94a6.47,6.47,0,0,1,2.57-1.7h-.19a3.32,3.32,0,0,1,.55-.09,2.55,2.55,0,0,1,2,.25h0a4.74,4.74,0,0,1,2.6,2.26,5.62,5.62,0,0,1-.67,5.8,4.3,4.3,0,0,1-7.89-1.48A5.33,5.33,0,0,1,457.46,151.94Z" style="fill: rgb(69, 90, 100); transform-origin: 460.847px 155.277px;" id="elnruvtmzs7j" class="animable"></path><path d="M424.39,113.9c-3.06-1.94-3.8-6.46-2.14-9.68S427.43,99,431,98.45a16.71,16.71,0,0,1,14.39,4.77c2,2,3.58,4.69,6.26,5.63,2.36.82,5,.08,7.44.4a11.2,11.2,0,0,1,7.86,5.66,24.26,24.26,0,0,1,2.8,9.57c.36,3,.6,6.39,2.71,8.62s5.32,2.62,7.89,4.17a10.79,10.79,0,0,1,3.2,14.74c-1,1.48-2.47,2.84-2.59,4.63s.95,3.1,1.45,4.66a7.3,7.3,0,0,1-6.23,9c-2.13.12-4.41-.71-6.32.24s-2.6,3.23-3.81,5A9.11,9.11,0,0,1,455,178.42c-1.56-.76-3-2-4.78-1.91s-3.1,1.6-4.81,1.93c-2.23.43-4.36-1.22-5.69-3.07s-2.25-4-3.95-5.54c-2.23-2-5.36-2.47-8.18-3.44a23.06,23.06,0,0,1-13-32.31" style="fill: rgb(38, 50, 56); transform-origin: 448.627px 138.741px;" id="elci44b9lvou" class="animable"></path><path d="M416.38,186.55l-3.26-59.77a5.07,5.07,0,0,1,4.39-5.27l26.72-7.57c8.6-1.15,14.63,9.3,15.42,17.93.88,9.59,1.57,21.34.64,28.54-1.88,14.49-13.75,16.68-13.75,16.68s-.09,14.75,0,20l3.3,16.25Z" style="fill: rgb(255, 191, 157); transform-origin: 436.924px 163.596px;" id="elcclo7tjuz86" class="animable"></path><path d="M456.7,143.37a1.86,1.86,0,0,1-1.73,1.92,1.78,1.78,0,0,1-2-1.62,1.85,1.85,0,0,1,1.73-1.91A1.77,1.77,0,0,1,456.7,143.37Z" style="fill: rgb(38, 50, 56); transform-origin: 454.835px 143.524px;" id="elq5y4evuatrq" class="animable"></path><path d="M457.27,138.06c-.22.25-1.65-.75-3.64-.69s-3.42,1.1-3.64.86.11-.54.73-1a5.09,5.09,0,0,1,2.91-1,4.86,4.86,0,0,1,2.91.85C457.16,137.52,457.38,138,457.27,138.06Z" style="fill: rgb(38, 50, 56); transform-origin: 453.609px 137.247px;" id="ele99qd9olhwq" class="animable"></path><path d="M436.45,143.37a1.85,1.85,0,0,1-1.73,1.92,1.77,1.77,0,0,1-2-1.62,1.84,1.84,0,0,1,1.73-1.91A1.76,1.76,0,0,1,436.45,143.37Z" style="fill: rgb(38, 50, 56); transform-origin: 434.585px 143.524px;" id="eln4ddzx6mkgg" class="animable"></path><path d="M437.73,139c-.23.24-1.66-.75-3.65-.69s-3.42,1.1-3.64.86.11-.55.73-1a5.17,5.17,0,0,1,2.91-1A4.93,4.93,0,0,1,437,138C437.61,138.45,437.83,138.88,437.73,139Z" style="fill: rgb(38, 50, 56); transform-origin: 434.062px 138.186px;" id="eljz2ocpmzco" class="animable"></path><path d="M445.37,153.54a13.31,13.31,0,0,1,3.21-.68c.51-.06,1-.18,1.06-.53a2.58,2.58,0,0,0-.38-1.49L447.65,147c-2.25-5.45-3.89-9.94-3.67-10s2.22,4.25,4.47,9.7c.54,1.35,1.05,2.63,1.55,3.85a3.06,3.06,0,0,1,.32,2,1.32,1.32,0,0,1-.82.77,3.26,3.26,0,0,1-.86.14A12.92,12.92,0,0,1,445.37,153.54Z" style="fill: rgb(38, 50, 56); transform-origin: 447.164px 145.304px;" id="elr44omc3rmei" class="animable"></path><path d="M446.54,177.09A34.63,34.63,0,0,1,428,172.45s4.18,10.72,18.57,9Z" style="fill: rgb(255, 154, 108); transform-origin: 437.285px 177.043px;" id="elmos9az67g8g" class="animable"></path><path d="M445.18,157.26a10.88,10.88,0,0,0-4.07-1,3.14,3.14,0,0,0-2.57,1.49,2.92,2.92,0,0,0,3.4,4.29c1.11-.31,1.3-.95,2-1.86a15.73,15.73,0,0,0,1.38-2,.91.91,0,0,0-.16-.94" style="fill: rgb(255, 154, 108); transform-origin: 441.752px 159.221px;" id="elewpmd4ycxq" class="animable"></path><path d="M438.37,130.77c-.18.55-2.17.35-4.5.69s-4.2,1-4.52.57c-.15-.23.17-.75.91-1.3a7.68,7.68,0,0,1,3.33-1.27,7.51,7.51,0,0,1,3.55.32C438,130.1,438.45,130.51,438.37,130.77Z" style="fill: rgb(38, 50, 56); transform-origin: 433.847px 130.773px;" id="elahf5cwmgclo" class="animable"></path><path d="M456.38,131.23c-.34.46-1.72,0-3.37.06s-3,.39-3.37-.08c-.15-.22.06-.68.66-1.12a4.52,4.52,0,0,1,2.71-.82,4.63,4.63,0,0,1,2.72.83C456.32,130.55,456.53,131,456.38,131.23Z" style="fill: rgb(38, 50, 56); transform-origin: 453.01px 130.364px;" id="eluoeij77s608" class="animable"></path><path d="M469.37,128.84a9.89,9.89,0,0,0-3.8-5.45,36.34,36.34,0,0,1-3.21-1.87c-2.09-1.68-2.57-4.61-3.85-7a10.89,10.89,0,0,0-8.3-5.5c-2.86-.3-5.8.56-8.59-.14-2.06-.52-3.85-1.86-5.94-2.25-4.06-.78-7.84,2.14-10.78,5,0,2.91,2.3,4.85,4.53,6.72a10.05,10.05,0,0,0,8.17,2.15c2.22-.4,4.65-1.52,6.57-.34s2.1,4.29,3.89,5.84c2.56,2.23,6.64.14,9.89,1.1,2.51.75,4.07,3.15,5.74,5.17s4.17,3.93,6.68,3.19A29.56,29.56,0,0,0,469.37,128.84Z" style="fill: rgb(38, 50, 56); transform-origin: 447.635px 121.062px;" id="elagvg22r6ih8" class="animable"></path><path d="M438.87,116.55c-1.82-.52-5.54-1.7-6.52-3.28-2.12-3.43-5.86-5.77-9.68-5.56A9.19,9.19,0,0,0,414.4,115,13.22,13.22,0,0,0,403,122.28a16.81,16.81,0,0,0-.72,1.69,10.08,10.08,0,0,0-.67,8.44c.63,1.64,1.7,3.47.86,5s-3,1.62-4.73,2.2a6.69,6.69,0,0,0-4.21,7.46c.24,1.09.76,2.18.53,3.28s-1.21,1.95-2,2.84A8.3,8.3,0,0,0,397,166.72c1.3.24,2.7.18,3.82.87,1.29.8,1.85,2.34,2.76,3.55a7.16,7.16,0,0,0,7.76,2.43,6.51,6.51,0,0,0,1.56-.78,5.15,5.15,0,0,0,4.56,2l-.54-30.4a2.51,2.51,0,0,0,1.84,1.44c4.88,1.11,5.6-9,4.51-11.67a28.83,28.83,0,0,0,4.9-5.15c1.34-2,2.53-7.42,2.24-9.87C432.18,119.26,439.67,116.78,438.87,116.55Z" style="fill: rgb(38, 50, 56); transform-origin: 414.518px 141.254px;" id="el9igky76ehn9" class="animable"></path><path d="M418.28,146.87c-.16-3.09-3.94-3.75-6.62-2.2-1.47.85-2.59,2.56-2.46,5.84.36,8.75,9.07,6.58,9.08,6.33S418.46,150.49,418.28,146.87Z" style="fill: rgb(255, 191, 157); transform-origin: 413.776px 150.561px;" id="elyo038n8rvs" class="animable"></path><path d="M415.47,153.64s-.15.11-.4.24a1.57,1.57,0,0,1-1.14.07c-.94-.3-1.78-1.74-1.89-3.31a5,5,0,0,1,.34-2.2,1.77,1.77,0,0,1,1.1-1.22.76.76,0,0,1,.91.38c.13.24.08.42.13.43s.18-.15.1-.51a1.05,1.05,0,0,0-.37-.54,1.15,1.15,0,0,0-.85-.18,2.14,2.14,0,0,0-1.54,1.42,5.18,5.18,0,0,0-.43,2.46c.13,1.76,1.1,3.37,2.38,3.68a1.66,1.66,0,0,0,1.39-.28C415.46,153.85,415.5,153.65,415.47,153.64Z" style="fill: rgb(255, 154, 108); transform-origin: 413.448px 150.595px;" id="elyvkfk4hi38" class="animable"></path><path d="M426.83,114.19a5.07,5.07,0,0,0-1.75,1.46c-.87,1.19-1.19,3.48-.64,6l0,.22-.21.06a8.48,8.48,0,0,0-5.64,5,6.76,6.76,0,0,0-.45,2.14,13.67,13.67,0,0,0,.27,2.31,16.25,16.25,0,0,1,.34,2.49,4.08,4.08,0,0,1-.7,2.58c-1.08,1.66-2.83,2.47-4.34,3.26a14.88,14.88,0,0,0-4.06,2.66,11,11,0,0,0-3.27,7.33,11.39,11.39,0,0,0,1.16,5.41c.58,1.19,1.07,1.76,1,1.8s-.15-.12-.38-.39a9.33,9.33,0,0,1-.86-1.3A11.11,11.11,0,0,1,406,149.7a11.24,11.24,0,0,1,3.3-7.72,15.13,15.13,0,0,1,4.19-2.8c1.5-.79,3.15-1.6,4.1-3.06s.53-3.06.28-4.63a13,13,0,0,1-.27-2.42,6.94,6.94,0,0,1,.51-2.34,8.87,8.87,0,0,1,6.06-5.2l-.17.28c-.52-2.7-.11-5.07.89-6.31a3.64,3.64,0,0,1,1.36-1.11A2.35,2.35,0,0,1,426.83,114.19Z" style="fill: rgb(69, 90, 100); transform-origin: 416.413px 135.553px;" id="el6rgt4qa6pi5" class="animable"></path><path d="M411.33,155a6.38,6.38,0,0,1,2.57-1.69h-.2a3.5,3.5,0,0,1,.55-.09,2.54,2.54,0,0,1,2,.24h0a4.79,4.79,0,0,1,2.6,2.27,5.6,5.6,0,0,1-.66,5.8,4.3,4.3,0,0,1-7.89-1.48A5.33,5.33,0,0,1,411.33,155Z" style="fill: rgb(69, 90, 100); transform-origin: 414.714px 158.345px;" id="eldehcrxp54xf" class="animable"></path><path d="M425.41,135.14,413.12,141s-2.94,2.36-2.71,4.74c0,0,1.11-2.18,5.29-1.77a3.37,3.37,0,0,1,2.29,1.71l7.2,2.51Z" style="fill: rgb(224, 224, 224); transform-origin: 417.904px 141.665px;" id="elfqkzshgyc25" class="animable"></path><path d="M425.41,135.14c-.09.44-.22,13.06-.22,13.06l16.78.22s2.84-5.76,3.86-5.82c1.53-.09,3.93,5.4,3.93,5.4l14.17.05V135.51Zm15.46,10a1.16,1.16,0,0,1-1.16,1.16h-10.2a1.16,1.16,0,0,1-1.16-1.16v-6.29a1.16,1.16,0,0,1,1.16-1.16h10.2a1.16,1.16,0,0,1,1.16,1.16Zm20.89,0a1.16,1.16,0,0,1-1.16,1.16h-8.8a1.16,1.16,0,0,1-1.17-1.16v-6.29a1.16,1.16,0,0,1,1.17-1.16h8.8a1.16,1.16,0,0,1,1.16,1.16Z" style="fill: rgb(224, 224, 224); transform-origin: 444.56px 141.78px;" id="el3v4hlhfll4y" class="animable"></path><rect x="428.35" y="137.68" width="12.51" height="8.61" rx="1.28" style="fill: rgb(69, 90, 100); transform-origin: 434.605px 141.985px;" id="elfqg97wu2ijn" class="animable"></rect><rect x="450.63" y="137.68" width="11.12" height="8.61" rx="1.28" style="fill: rgb(252, 23, 34); transform-origin: 456.19px 141.985px;" id="el0g9694pc5qtc" class="animable"></rect><path d="M425.49,148.32a40,40,0,0,1-.26-6.51,40,40,0,0,1,.26-6.51,41.45,41.45,0,0,1,.26,6.51A41.45,41.45,0,0,1,425.49,148.32Z" style="fill: rgb(38, 50, 56); transform-origin: 425.488px 141.81px;" id="elylyw6tr4z3s" class="animable"></path><path d="M439.47,139.09a23.43,23.43,0,0,1-3.33,3.61,23.36,23.36,0,0,1-3.7,3.25,23,23,0,0,1,3.34-3.62A23.16,23.16,0,0,1,439.47,139.09Z" style="fill: rgb(255, 255, 255); transform-origin: 435.955px 142.52px;" id="eldogx68q4itq" class="animable"></path><path d="M437.13,138.62a13.18,13.18,0,0,1-2.5,2.77,13.58,13.58,0,0,1-2.85,2.39,13.51,13.51,0,0,1,2.49-2.77A13.77,13.77,0,0,1,437.13,138.62Z" style="fill: rgb(255, 255, 255); transform-origin: 434.455px 141.2px;" id="elagvu9x2reec" class="animable"></path><path d="M456.46,140.74a7.34,7.34,0,0,1-1.59,2.17c-1,1.1-1.88,1.92-2,1.82a6.88,6.88,0,0,1,1.59-2.17C455.46,141.46,456.35,140.64,456.46,140.74Z" style="fill: rgb(255, 255, 255); transform-origin: 454.665px 142.735px;" id="elstlya914yd" class="animable"></path><path d="M460,138.52a11.8,11.8,0,0,1-2.26,3.46,11.33,11.33,0,0,1-3,2.84,28.93,28.93,0,0,1,2.62-3.17A28.24,28.24,0,0,1,460,138.52Z" style="fill: rgb(255, 255, 255); transform-origin: 457.37px 141.67px;" id="el8l3i5v3jrvs" class="animable"></path><path d="M442.52,161.43s-.12.19-.47.39a3,3,0,0,1-1.66.28,3,3,0,0,1-2.15-1.28,3.13,3.13,0,0,1-.12-3.06,3,3,0,0,1,1.1-1.23,3.31,3.31,0,0,1,1.45-.45,6.54,6.54,0,0,1,2.43.39,5.4,5.4,0,0,1,2.08.79c0,.05-.82-.19-2.17-.43a6.7,6.7,0,0,0-2.3-.27,2.55,2.55,0,0,0-2.12,1.43,2.71,2.71,0,0,0,.05,2.57,2.66,2.66,0,0,0,1.81,1.17A3.82,3.82,0,0,0,442.52,161.43Z" style="fill: rgb(38, 50, 56); transform-origin: 441.479px 159.099px;" id="elos8europ0jb" class="animable"></path><path d="M475.84,284.16s6.18-52.82,6.61-53.25-15.55-45.7-15.55-45.7l-20.38-3.8s.61,9.05-10.56,9.74a21.8,21.8,0,0,1-19.86-9.76l-24.55,7,11.06,79.48-9.05,13.71-5.15,23.55Z" style="fill: rgb(224, 224, 224); transform-origin: 435.434px 243.26px;" id="elb07xiouk37w" class="animable"></path><path d="M467.1,185.78c1.83,0,16.14,4,19.84,12.52,3.22,7.44,9.91,27.27,9.91,27.27s8.85,30.77,8.86,36.22c0,6.28.22,21.65-18.65,15l-10.39-9,.68-49.49Z" style="fill: rgb(255, 191, 157); transform-origin: 486.405px 232.103px;" id="elx65vrc76o8" class="animable"></path><path d="M497.85,253.93s-3.44-3.3-9-9.12c-6.71-7-18.67-18-18.67-18l-6.47,7s4.75,9.49,6.24,11.89c3.78,6.09,3.32,9.34,8.87,17.75A72.12,72.12,0,0,0,492,278.11Z" style="fill: rgb(255, 191, 157); transform-origin: 480.78px 252.46px;" id="elic7tw15lv2" class="animable"></path><path d="M441.51,225.26a3,3,0,0,1-5.42-2.34.61.61,0,0,1-.8,0,1.37,1.37,0,0,1-.42-.76,3.49,3.49,0,0,1,.34-2.63,2.73,2.73,0,0,1,2.24-1.34,2.25,2.25,0,0,1,2.12,1.43s1.06-1.65,2.3.16.26,4.54.26,4.54Z" style="fill: rgb(255, 255, 255); transform-origin: 438.625px 222.394px;" id="ell22ba4aq7fm" class="animable"></path><path d="M471.76,228.62l-6.07-9.36a5.26,5.26,0,0,0-2.36-4.19s-.86-3.72-4.19-3.24-9.71.76-9.71.76-8.09,4.38-9.24,6.19-1.14,2.67-.38,3.33a4.38,4.38,0,0,0,2.38.67s-1.81,1.9-1.14,2.86,4-.1,4-.1-1.24,2.19,0,3.43,4,.57,4,.57,1.71,2.67,3.33,3a4.77,4.77,0,0,0,3-.57l1.07-1.51,3.53.65a31.84,31.84,0,0,0,1.71,4.19c.76,1.34,5.81,3.62,5.81,3.62Z" style="fill: rgb(255, 191, 157); transform-origin: 455.519px 225.354px;" id="elgwwljhyx44m" class="animable"></path><path d="M451.37,229.57a5.63,5.63,0,0,1,1.05-1.56,8.6,8.6,0,0,1,3.63-2.79,20.5,20.5,0,0,1,4.5-.6c1.14-.1,1.8-.36,1.83-.29a3.58,3.58,0,0,1-1.77.66,30.75,30.75,0,0,0-4.39.72,9.56,9.56,0,0,0-3.52,2.54C451.91,229.08,451.43,229.62,451.37,229.57Z" style="fill: rgb(255, 154, 108); transform-origin: 456.875px 226.946px;" id="elal89l1dxiug" class="animable"></path><path d="M445.06,226.73a13.3,13.3,0,0,1,1.93-1.79c1.23-1.05,2.95-2.45,4.86-4a4.69,4.69,0,0,1,3.33-1.26c1.1,0,2.05.19,2.85.25a9.25,9.25,0,0,0,2.56-.13,4,4,0,0,1-2.59.5c-.82,0-1.78-.17-2.81-.14a4.38,4.38,0,0,0-3,1.18c-1.9,1.56-3.68,2.93-5,3.91A14.25,14.25,0,0,1,445.06,226.73Z" style="fill: rgb(255, 154, 108); transform-origin: 452.825px 223.204px;" id="el6i4ruzzkfa3" class="animable"></path><path d="M460,216a12,12,0,0,1-3-.07,14.22,14.22,0,0,0-6.95.68,19.14,19.14,0,0,0-5.76,4,20.42,20.42,0,0,1-2.16,2,13.52,13.52,0,0,1,1.9-2.29,17.1,17.1,0,0,1,5.83-4.27,10.39,10.39,0,0,1,3.94-.8,23,23,0,0,1,3.24.23A29.05,29.05,0,0,1,460,216Z" style="fill: rgb(255, 154, 108); transform-origin: 451.065px 218.93px;" id="elx2b1tei80k" class="animable"></path><path d="M411.71,229.15a5.26,5.26,0,0,1,4.25-2.79,2.77,2.77,0,1,1,4.89.25,3,3,0,0,1,4.78,2.64A3.46,3.46,0,0,1,429.8,228a2.74,2.74,0,1,1,5.29-1.39,2.17,2.17,0,0,1,2.77,2.31,4.73,4.73,0,0,1,5.41-.25,3.77,3.77,0,1,1,7.16,2.18l2.19-1.26" style="fill: rgb(255, 255, 255); transform-origin: 432.165px 226.635px;" id="elruauw5uqamg" class="animable"></path><path d="M463.22,232.43c-.24.88-6.87,57.06-6.87,57.06h-42.8l-3.79-56.18Z" style="fill: rgb(252, 23, 34); transform-origin: 436.49px 260.96px;" id="elq1qkfq70cd" class="animable"></path><polygon points="414.87 233.31 417.16 275.49 420.5 272.88 419.75 233.31 414.87 233.31" style="fill: rgb(255, 255, 255); transform-origin: 417.685px 254.4px;" id="elugwxpx9ygn9" class="animable"></polygon><polygon points="423.73 233.31 426.02 275.49 429.36 272.88 428.62 233.31 423.73 233.31" style="fill: rgb(255, 255, 255); transform-origin: 426.545px 254.4px;" id="el50ea54z2ko" class="animable"></polygon><polygon points="433.62 233.48 435.91 275.65 439.26 273.05 438.51 233.48 433.62 233.48" style="fill: rgb(255, 255, 255); transform-origin: 436.44px 254.565px;" id="el620pujpbrdx" class="animable"></polygon><polygon points="443.44 233.48 445.73 275.65 449.07 273.05 448.33 233.48 443.44 233.48" style="fill: rgb(255, 255, 255); transform-origin: 446.255px 254.565px;" id="elayjpz4tqp0q" class="animable"></polygon><polygon points="452.62 233.31 452.6 275.49 455.94 272.88 457.61 233.31 452.62 233.31" style="fill: rgb(255, 255, 255); transform-origin: 455.105px 254.4px;" id="elrrpmmv0gi1" class="animable"></polygon><path d="M409.32,233.31h54.24a1.86,1.86,0,0,0,1.86-1.86h0a1.87,1.87,0,0,0-1.86-1.87H409.32a1.87,1.87,0,0,0-1.86,1.87h0A1.86,1.86,0,0,0,409.32,233.31Z" style="fill: rgb(252, 23, 34); transform-origin: 436.44px 231.445px;" id="elicmr9u77lom" class="animable"></path><path d="M409.32,233.31a.83.83,0,0,1-.31,0,1.91,1.91,0,0,1-.86-.34,2,2,0,0,1-.76-1.29,2,2,0,0,1,.81-1.85,2,2,0,0,1,1.19-.36h1.33l3,0,7.34,0,42.49-.08a2.14,2.14,0,0,1,2.11,2.31,2.07,2.07,0,0,1-.81,1.49,2.31,2.31,0,0,1-1.59.45h-6l-11.28,0-19.1-.05L414,233.41l-3.5,0-.91,0-.31,0,.31,0,.91,0,3.5,0,12.88-.08,19.1-.06h17.25a1.66,1.66,0,0,0,1.89-1.46,1.63,1.63,0,0,0-1.6-1.75l-42.49-.07-7.34,0-3,0c-.92,0-1.81-.17-2.4.29a1.77,1.77,0,0,0-.77,1.66,1.8,1.8,0,0,0,.67,1.22A2.1,2.1,0,0,0,409.32,233.31Z" style="fill: rgb(38, 50, 56); transform-origin: 436.522px 231.52px;" id="elv0kkg1era8" class="animable"></path><path d="M417,241.08s-1.43,2.67-2.69,3.43-6.91,5.7-6.91,5.7l-5,9.78s-2.15,8.25-2.15,8.52,2.24,6.64,4,7.36S415,277.75,415,277.75h13.19l4.48-2.69a2.25,2.25,0,0,0-3.05-1.52,11.81,11.81,0,0,1-4.3.8l-5-.62-1.43-.72,8.52-.63s10.76-2.78,11.12-3.77-.72-1.7-1.25-2.06-7.27.81-8.71,1-8.34-.36-8.34-.36l8.17-.9s11.57-1.79,10.85-3.77-1.26-1.7-4.13-1.88a31.55,31.55,0,0,0-7.62,1.08l-8.61-.18,15.87-2.87s2.92-.36,3-2.19-2.23-2.46-5-2.1-18.86,1.95-18.86,1.95l-1.34-.89,1.07-3.59a21.71,21.71,0,0,0,4.22-4.22c1.17-1.88,1.88-4.12,1.17-5.56A1.61,1.61,0,0,0,417,241.08Z" style="fill: rgb(255, 191, 157); transform-origin: 419.766px 259.374px;" id="elbj2pc74f047" class="animable"></path><path d="M393.28,187.9s-9.94,1.46-12.37,15.28-1.21,71.52,1.46,75.88,24.5-2.56,24.5-2.56L403,261.8h0l-2.52-51.11Z" style="fill: rgb(255, 191, 157); transform-origin: 393.235px 234.201px;" id="eln27wzq48nhh" class="animable"></path><path d="M402.33,261.11a54.37,54.37,0,0,0-7.13-2.18,50.22,50.22,0,0,0-7.44-.59A6.78,6.78,0,0,1,390,258a23.18,23.18,0,0,1,5.33.39,23.48,23.48,0,0,1,5.11,1.6A7.33,7.33,0,0,1,402.33,261.11Z" style="fill: rgb(255, 154, 108); transform-origin: 395.045px 259.545px;" id="elhy27h5yo7wv" class="animable"></path><path d="M406.25,252.46c.16.09-2.14,3.63-3.63,8.55a56.26,56.26,0,0,0-1.48,6.39,15,15,0,0,1-.57,2.68,14.06,14.06,0,0,1,.21-2.74,37.88,37.88,0,0,1,1.35-6.49,31,31,0,0,1,2.6-6.1A11.63,11.63,0,0,1,406.25,252.46Z" style="fill: rgb(255, 154, 108); transform-origin: 403.412px 261.27px;" id="elsmyo7ft6sq" class="animable"></path><path d="M399.1,200.42c.14,0,.73,5,1.32,11.11s.94,11.15.8,11.16-.74-5-1.32-11.11S399,200.44,399.1,200.42Z" style="fill: rgb(38, 50, 56); transform-origin: 400.166px 211.555px;" id="elo1pyh1k8ksg" class="animable"></path><path d="M496.81,253.87a8.51,8.51,0,0,1-1-1.09c-.63-.73-1.56-1.77-2.71-3-2.3-2.55-5.58-6-9.33-9.65l-9.68-9.32c-1.23-1.19-2.23-2.17-2.9-2.85a8.15,8.15,0,0,1-1-1.1,7.14,7.14,0,0,1,1.16,1l3,2.73c2.53,2.33,6,5.55,9.79,9.22s7,7.15,9.24,9.77c1.12,1.31,2,2.39,2.58,3.16A7.67,7.67,0,0,1,496.81,253.87Z" style="fill: rgb(255, 154, 108); transform-origin: 483.5px 240.365px;" id="eldzw2r5jtxtp" class="animable"></path><path d="M477.16,232.43c-.11,0,.26-2,.3-5.13a47.45,47.45,0,0,0-.26-5.56c-.25-2.08-.61-4.36-1.13-6.72a98.58,98.58,0,0,0-3.54-11.89c-.54-1.5-1-2.7-1.32-3.53a8.26,8.26,0,0,1-.44-1.32,6.49,6.49,0,0,1,.63,1.24c.38.81.89,2,1.47,3.48a80.12,80.12,0,0,1,3.71,11.9,63,63,0,0,1,1.09,6.79,41.11,41.11,0,0,1,.16,5.62c0,.8-.09,1.52-.15,2.15a15.77,15.77,0,0,1-.22,1.61A8,8,0,0,1,477.16,232.43Z" style="fill: rgb(38, 50, 56); transform-origin: 474.316px 215.355px;" id="elotay9geq6n" class="animable"></path><path d="M452.46,423.28l1.25,42.42,52.78-1.29c-.43-5-28-14.49-28-14.49l.31-27.21Z" style="fill: rgb(252, 23, 34); transform-origin: 479.475px 444.205px;" id="elr5l9l4m9hqf" class="animable"></path><path d="M462.13,448a2.16,2.16,0,0,0-1.43,2.5,2.07,2.07,0,0,0,2.46,1.43,2.26,2.26,0,0,0,1.5-2.65,2.14,2.14,0,0,0-2.72-1.21" style="fill: rgb(255, 255, 255); transform-origin: 462.685px 449.962px;" id="elmc2yqjjp7yf" class="animable"></path><path d="M453.71,465.78l-.16-4.54,50.8.71a3.63,3.63,0,0,1,2.5,3.51Z" style="fill: rgb(38, 50, 56); transform-origin: 480.2px 463.51px;" id="eld3nftt6aqf7" class="animable"></path><path d="M479.36,449.63c0,.26-1.29.41-2.54,1.27s-1.9,2-2.14,1.86.11-1.6,1.64-2.61S479.41,449.39,479.36,449.63Z" style="fill: rgb(255, 255, 255); transform-origin: 476.986px 451.094px;" id="eltgbdb3hloys" class="animable"></path><path d="M485,451.79c.06.24-1,.71-1.89,1.82s-1.08,2.27-1.33,2.27-.46-1.46.62-2.82S484.94,451.54,485,451.79Z" style="fill: rgb(255, 255, 255); transform-origin: 483.291px 453.786px;" id="eljept50lo6qa" class="animable"></path><path d="M488.25,458.33c-.23.07-.62-1.21,0-2.64s1.82-2,1.93-1.81-.61,1-1.11,2.17S488.51,458.3,488.25,458.33Z" style="fill: rgb(255, 255, 255); transform-origin: 489.054px 456.089px;" id="elr9x7fa7x9lf" class="animable"></path><path d="M478.74,443.42c-.1.24-1.29-.09-2.75.05s-2.58.62-2.72.4.93-1.16,2.65-1.3S478.86,443.22,478.74,443.42Z" style="fill: rgb(255, 255, 255); transform-origin: 476.003px 443.24px;" id="elbx3au8i18rc" class="animable"></path><path d="M495,343.9l21.55,35.25,44-26.58c-2.8-4-30.65,1.27-30.65,1.27L517,330.69Z" style="fill: rgb(252, 23, 34); transform-origin: 527.775px 354.92px;" id="elj38uzco248q" class="animable"></path><path d="M515.14,360.15a2.1,2.1,0,0,0,0,2.8,2,2,0,0,0,2.77,0,2.21,2.21,0,0,0,0-3,2.11,2.11,0,0,0-2.89.29" style="fill: rgb(255, 255, 255); transform-origin: 516.551px 361.508px;" id="elddsyryyxukw" class="animable"></path><path d="M516.6,379.23l-2.33-3.77,43.28-23.94s2.48-.32,3.08,1.2Z" style="fill: rgb(38, 50, 56); transform-origin: 537.45px 365.361px;" id="ellsxzmm5zv8i" class="animable"></path><path d="M530.47,353.18c.13.22-.89,1-1.53,2.3s-.66,2.57-.9,2.6-.68-1.4.12-3S530.4,353,530.47,353.18Z" style="fill: rgb(255, 255, 255); transform-origin: 529.091px 355.612px;" id="elcufz3ax499j" class="animable"></path><path d="M536.24,352.3c.18.18-.53,1.11-.71,2.46s.18,2.44,0,2.56-1.1-1-.84-2.69S536.11,352.1,536.24,352.3Z" style="fill: rgb(255, 255, 255); transform-origin: 535.456px 354.8px;" id="elxkqagzgeaf" class="animable"></path><path d="M542.2,356.24c-.17.17-1.12-.73-1.28-2.24s.57-2.58.77-2.46-.05,1.13.1,2.37S542.4,356.09,542.2,356.24Z" style="fill: rgb(255, 255, 255); transform-origin: 541.573px 353.896px;" id="el7pl3uwgdhq5" class="animable"></path><path d="M527,348.23c0,.25-1.13.55-2.3,1.37s-1.88,1.77-2.1,1.65.22-1.43,1.61-2.37S527,348,527,348.23Z" style="fill: rgb(255, 255, 255); transform-origin: 524.773px 349.673px;" id="el57lg0f4o5c2" class="animable"></path><path d="M388.6,299.58s-7.93,22.32,2.74,31.82h43.77s3-32.3,18.05-35.46l45.39,63.15,29.27-19.78s-35.07-69.81-39.4-78c-5-9.44-13.21-13-23.5-11.43s-23.82,8.44-32.43,14.24C414.29,276.42,388.6,299.58,388.6,299.58Z" style="fill: rgb(38, 50, 56); transform-origin: 456.793px 304.306px;" id="eljvahoombfs" class="animable"></path><g id="elv46pweglwhm"><g style="opacity: 0.3; transform-origin: 465.71px 433.36px;" class="animable"><polygon points="452.82 435.5 478.69 434.1 478.72 431.22 452.7 431.35 452.82 435.5" id="elm8svbdi5gri" class="animable" style="transform-origin: 465.71px 433.36px;"></polygon></g></g><g id="eldstafklh1au"><g style="opacity: 0.3; transform-origin: 514px 350.915px;" class="animable"><polygon points="504.59 359.57 525.38 345.73 523.46 342.26 502.62 356.34 504.59 359.57" id="elcqbj2iimg3" class="animable" style="transform-origin: 514px 350.915px;"></polygon></g></g><path d="M433.28,331.4h5.14s-2.77,13.45,0,16.22,5.14,11.47,5.14,11.47l5.92,72.48,36.68-.43,5.66-97.76s2.77-25.32-10.68-36-22.9-5.14-28.88-2-11.88,5.33-15.29,19.7Z" style="fill: rgb(38, 50, 56); transform-origin: 462.668px 361.343px;" id="elovtok3zv64a" class="animable"></path><path d="M489.05,365.52a1.47,1.47,0,0,1,0-.37c0-.27.05-.62.08-1.07.09-.94.21-2.34.34-4.13.26-3.58.55-8.78.52-15.21a190.8,190.8,0,0,0-1.49-22.51,93.92,93.92,0,0,0-2.38-13.08,34.83,34.83,0,0,0-2.54-6.51,21.65,21.65,0,0,0-4.3-5.71,19.52,19.52,0,0,0-6.06-3.76,23.16,23.16,0,0,0-6.8-1.44,24.1,24.1,0,0,0-12.73,2.85,30.79,30.79,0,0,0-9.19,7.57A38.93,38.93,0,0,0,439,311a57.15,57.15,0,0,0-4.16,14.57c-.29,1.77-.45,3.16-.57,4.1l-.12,1.07a1.71,1.71,0,0,1-.06.36,1.47,1.47,0,0,1,0-.37c0-.27,0-.62.07-1.07.08-.95.21-2.34.47-4.12a55.46,55.46,0,0,1,4-14.69,38.66,38.66,0,0,1,5.51-9,31.23,31.23,0,0,1,9.31-7.72,24.51,24.51,0,0,1,13-2.94,23.66,23.66,0,0,1,7,1.47,20,20,0,0,1,6.22,3.86,21.87,21.87,0,0,1,4.41,5.85,35,35,0,0,1,2.57,6.61A94.5,94.5,0,0,1,489,322.17a183.49,183.49,0,0,1,1.38,22.57c0,6.44-.36,11.64-.69,15.23-.16,1.79-.31,3.18-.43,4.12-.06.45-.1.8-.14,1.07A1.71,1.71,0,0,1,489.05,365.52Z" style="fill: rgb(69, 90, 100); transform-origin: 462.229px 328.338px;" id="elumj48orokaa" class="animable"></path><path d="M450.69,306.47c.07.06-1,1.24-2.51,3.29a54,54,0,0,0-5.17,8.51,55.06,55.06,0,0,0-3.5,9.32c-.67,2.47-.95,4-1,4a4.89,4.89,0,0,1,.1-1.12c.1-.71.29-1.73.58-3a47.08,47.08,0,0,1,3.39-9.46,45.71,45.71,0,0,1,5.35-8.5,29.88,29.88,0,0,1,2-2.3C450.38,306.72,450.66,306.44,450.69,306.47Z" style="fill: rgb(69, 90, 100); transform-origin: 444.601px 319.029px;" id="elis6m15hr2q" class="animable"></path></g><defs>     <filter id="active" height="200%">         <feMorphology in="SourceAlpha" result="DILATED" operator="dilate" radius="2"></feMorphology>                <feFlood flood-color="#32DFEC" flood-opacity="1" result="PINK"></feFlood>        <feComposite in="PINK" in2="DILATED" operator="in" result="OUTLINE"></feComposite>        <feMerge>            <feMergeNode in="OUTLINE"></feMergeNode>            <feMergeNode in="SourceGraphic"></feMergeNode>        </feMerge>    </filter>    <filter id="hover" height="200%">        <feMorphology in="SourceAlpha" result="DILATED" operator="dilate" radius="2"></feMorphology>                <feFlood flood-color="#ff0000" flood-opacity="0.5" result="PINK"></feFlood>        <feComposite in="PINK" in2="DILATED" operator="in" result="OUTLINE"></feComposite>        <feMerge>            <feMergeNode in="OUTLINE"></feMergeNode>            <feMergeNode in="SourceGraphic"></feMergeNode>        </feMerge>            <feColorMatrix type="matrix" values="0   0   0   0   0                0   1   0   0   0                0   0   0   0   0                0   0   0   1   0 "></feColorMatrix>    </filter></defs></svg>